<svg width="56" height="881" fill="none" xmlns="http://www.w3.org/2000/svg"><path fill="#E3E6EA" d="M27 36h2v4h-2zm0 6h2v4h-2zm0 6h2v4h-2zm0 6h2v4h-2zm0 6h2v4h-2zm0 6h2v4h-2zm0 6h2v4h-2zm0 6h2v4h-2zm0 6h2v4h-2zm0 6h2v4h-2zm0 6h2v4h-2zm0 6h2v4h-2zm0 6h2v4h-2zm0 6h2v4h-2zm0 6h2v4h-2zm0 6h2v4h-2zm0 6h2v4h-2zm0 6h2v4h-2zm0 6h2v4h-2zm0 6h2v4h-2zm0 6h2v4h-2zm0 6h2v4h-2zm0 6h2v4h-2zm0 6h2v4h-2zm0 6h2v4h-2zm0 6h2v4h-2zm0 6h2v4h-2zm0 6h2v4h-2zm0 6h2v4h-2zm0 6h2v4h-2zm0 6h2v4h-2zm0 6h2v4h-2zm0 6h2v4h-2zm0 6h2v4h-2zm0 6h2v4h-2zm0 6h2v4h-2zm0 6h2v4h-2zm0 6h2v4h-2zm0 6h2v4h-2zm0 6h2v4h-2zm0 6h2v4h-2zm0 6h2v4h-2zm0 6h2v4h-2zm0 6h2v4h-2zm0 6h2v4h-2zm0 6h2v4h-2zm0 6h2v4h-2zm0 6h2v4h-2zm0 6h2v4h-2zm0 6h2v4h-2zm0 6h2v4h-2zm0 6h2v4h-2zm0 6h2v4h-2zm0 6h2v4h-2zm0 6h2v4h-2zm0 6h2v4h-2zm0 6h2v4h-2zm0 6h2v4h-2zm0 6h2v4h-2zm0 6h2v4h-2zm0 6h2v4h-2zm0 6h2v4h-2zm0 6h2v4h-2zm0 6h2v4h-2zm0 6h2v4h-2zm0 6h2v4h-2zm0 6h2v4h-2zm0 6h2v4h-2zm0 6h2v4h-2zm0 6h2v4h-2zm0 6h2v4h-2zm0 6h2v4h-2zm0 6h2v4h-2zm0 6h2v4h-2zm0 6h2v4h-2zm0 6h2v4h-2zm0 6h2v4h-2zm0 6h2v4h-2zm0 6h2v4h-2zm0 6h2v4h-2zm0 6h2v4h-2zm0 6h2v4h-2zm0 6h2v4h-2zm0 6h2v4h-2zm0 6h2v4h-2zm0 6h2v4h-2zm0 6h2v4h-2zm0 6h2v4h-2zm0 6h2v4h-2zm0 6h2v4h-2zm0 6h2v4h-2zm0 6h2v4h-2zm0 6h2v4h-2zm0 6h2v4h-2zm0 6h2v4h-2zm0 6h2v4h-2zm0 6h2v4h-2zm0 6h2v4h-2zm0 6h2v4h-2zm0 6h2v4h-2zm0 6h2v4h-2zm0 6h2v4h-2zm0 6h2v4h-2zm0 6h2v4h-2zm0 6h2v4h-2zm0 6h2v4h-2zm0 6h2v4h-2zm0 6h2v4h-2zm0 6h2v4h-2zm0 6h2v4h-2zm0 6h2v4h-2zm0 6h2v4h-2zm0 6h2v4h-2zm0 6h2v4h-2zm0 6h2v4h-2zm0 6h2v4h-2zm0 6h2v4h-2zm0 6h2v4h-2zm0 6h2v4h-2zm0 6h2v4h-2zm0 6h2v4h-2zm0 6h2v4h-2zm0 6h2v4h-2zm0 6h2v4h-2zm0 6h2v4h-2zm0 6h2v4h-2zm0 6h2v4h-2zm0 6h2v4h-2zm0 6h2v4h-2zm0 6h2v4h-2zm0 6h2v4h-2zm0 6h2v4h-2z"/><circle cx="28" cy="28" r="27.5" fill="#E3E6EA" stroke="#11345C"/><circle cx="28" cy="329" r="27.5" fill="#E3E6EA" stroke="#11345C"/><path d="M18.21 29.06c0-2.32.408-4.107 1.22-5.36.828-1.253 1.968-1.88 3.42-1.88 1.454 0 2.588.627 3.4 1.88.828 1.253 1.24 3.04 1.24 5.36 0 2.32-.412 4.107-1.24 5.36-.812 1.253-1.946 1.88-3.4 1.88-1.452 0-2.592-.627-3.42-1.88-.812-1.253-1.22-3.04-1.22-5.36zm7.32 0c0-.76-.046-1.48-.14-2.16-.08-.68-.226-1.273-.44-1.78-.2-.507-.472-.907-.82-1.2-.346-.307-.772-.46-1.28-.46-.506 0-.932.153-1.28.46-.346.293-.626.693-.84 1.2-.2.507-.346 1.1-.44 1.78-.08.68-.12 1.4-.12 2.16 0 .76.04 1.48.12 2.16.094.68.24 1.273.44 1.78.214.507.494.913.84 1.22.348.293.774.44 1.28.44.508 0 .934-.147 1.28-.44.348-.307.62-.713.82-1.22.214-.507.36-1.1.44-1.78.094-.68.14-1.4.14-2.16zM30.36 25c.76-.293 1.5-.667 2.22-1.12a9.33 9.33 0 001.98-1.74h1.32V36h-1.86V24.72c-.16.147-.36.3-.6.46a6.75 6.75 0 01-.76.46c-.267.147-.553.287-.86.42-.293.133-.58.247-.86.34l-.58-1.4zM18.21 330.06c0-2.32.408-4.107 1.22-5.36.828-1.253 1.968-1.88 3.42-1.88 1.454 0 2.588.627 3.4 1.88.828 1.253 1.24 3.04 1.24 5.36 0 2.32-.412 4.107-1.24 5.36-.812 1.253-1.946 1.88-3.4 1.88-1.452 0-2.592-.627-3.42-1.88-.812-1.253-1.22-3.04-1.22-5.36zm7.32 0c0-.76-.046-1.48-.14-2.16-.08-.68-.226-1.273-.44-1.78-.2-.507-.472-.907-.82-1.2-.346-.307-.772-.46-1.28-.46-.506 0-.932.153-1.28.46-.346.293-.626.693-.84 1.2a7.73 7.73 0 00-.44 1.78c-.08.68-.12 1.4-.12 2.16 0 .76.04 1.48.12 2.16.094.68.24 1.273.44 1.78.214.507.494.913.84 1.22.348.293.774.44 1.28.44.508 0 .934-.147 1.28-.44.348-.307.62-.713.82-1.22.214-.507.36-1.1.44-1.78.094-.68.14-1.4.14-2.16zm12.31-3.38c0 .48-.1.947-.3 1.4-.187.44-.44.88-.76 1.32-.32.427-.68.853-1.08 1.28-.4.413-.8.82-1.2 1.22l-.8.8a14.79 14.79 0 00-.84.96 9.173 9.173 0 00-.68.96c-.173.307-.26.573-.26.8h6.38V337h-8.4c-.013-.08-.02-.16-.02-.24v-.22c0-.627.1-1.207.3-1.74a7.41 7.41 0 01.82-1.54c.333-.48.707-.933 1.12-1.36.413-.427.82-.84 1.22-1.24.333-.32.647-.633.94-.94a9.67 9.67 0 00.8-.94 4.3 4.3 0 00.56-.98c.147-.333.22-.687.22-1.06 0-.4-.067-.74-.2-1.02a1.922 1.922 0 00-.5-.7 1.888 1.888 0 00-.76-.4c-.28-.093-.58-.14-.9-.14-.387 0-.74.053-1.06.16-.32.107-.607.233-.86.38-.253.133-.467.28-.64.44l-.4.34-.92-1.32c.12-.133.3-.293.54-.48.24-.2.527-.387.86-.56a6.15 6.15 0 011.12-.44c.413-.12.86-.18 1.34-.18 1.453 0 2.54.34 3.26 1.02.733.667 1.1 1.613 1.1 2.84z" fill="#11345C"/><path fill="#fff" d="M27 823h2v4h-2zm0 6h2v4h-2zm0 6h2v4h-2zm0 6h2v4h-2zm0 6h2v4h-2zm0 6h2v4h-2zm0 6h2v4h-2zm0 6h2v4h-2zm0 6h2v4h-2zm0 6h2v4h-2z"/><circle cx="28" cy="616" r="27.5" fill="#E3E6EA" stroke="#11345C"/><path d="M18.21 616.06c0-2.32.408-4.107 1.22-5.36.828-1.253 1.968-1.88 3.42-1.88 1.454 0 2.588.627 3.4 1.88.828 1.253 1.24 3.04 1.24 5.36 0 2.32-.412 4.107-1.24 5.36-.812 1.253-1.946 1.88-3.4 1.88-1.452 0-2.592-.627-3.42-1.88-.812-1.253-1.22-3.04-1.22-5.36zm7.32 0c0-.76-.046-1.48-.14-2.16-.08-.68-.226-1.273-.44-1.78-.2-.507-.472-.907-.82-1.2-.346-.307-.772-.46-1.28-.46-.506 0-.932.153-1.28.46-.346.293-.626.693-.84 1.2a7.73 7.73 0 00-.44 1.78c-.08.68-.12 1.4-.12 2.16 0 .76.04 1.48.12 2.16.094.68.24 1.273.44 1.78.214.507.494.913.84 1.22.348.293.774.44 1.28.44.508 0 .934-.147 1.28-.44.348-.307.62-.713.82-1.22.214-.507.36-1.1.44-1.78.094-.68.14-1.4.14-2.16zm7.49 5.58c1.187 0 2.033-.233 2.54-.7.52-.467.78-1.093.78-1.88 0-.507-.107-.933-.32-1.28a2.353 2.353 0 00-.84-.82 3.407 3.407 0 00-1.22-.44 6.949 6.949 0 00-1.4-.14h-.48v-1.52h.66c.333 0 .673-.033 1.02-.1.36-.067.687-.187.98-.36.293-.173.533-.407.72-.7.187-.307.28-.687.28-1.14 0-.373-.067-.693-.2-.96a1.863 1.863 0 00-.54-.66 1.836 1.836 0 00-.76-.36c-.28-.08-.58-.12-.9-.12-.64 0-1.187.093-1.64.28a7.26 7.26 0 00-1.12.58l-.72-1.42c.16-.107.36-.22.6-.34.253-.133.533-.253.84-.36a7.01 7.01 0 01.98-.26c.36-.08.733-.12 1.12-.12.733 0 1.367.093 1.9.28.533.173.973.427 1.32.76.347.32.607.707.78 1.16.173.44.26.92.26 1.44 0 .72-.207 1.34-.62 1.86a4.105 4.105 0 01-1.5 1.16c.36.107.707.26 1.04.46.333.2.62.453.86.76.253.307.453.66.6 1.06.16.4.24.847.24 1.34 0 .6-.107 1.16-.32 1.68-.2.507-.52.947-.96 1.32-.427.373-.967.667-1.62.88-.653.213-1.427.32-2.32.32-.347 0-.707-.027-1.08-.08a11.53 11.53 0 01-1.86-.44 4.423 4.423 0 01-.52-.2l.36-1.62c.227.107.6.247 1.12.42.533.173 1.18.26 1.94.26z" fill="#11345C"/></svg>