<svg width="50" height="50" fill="none" xmlns="http://www.w3.org/2000/svg"><path d="M19.167 45.833H.833V47.5A1.672 1.672 0 002.5 49.167h45a1.671 1.671 0 001.667-1.667v-1.667h-30zm21.666-45H9.167A1.667 1.667 0 007.5 2.5v5h35v-5A1.667 1.667 0 0040.833.833zM30.774 32.44l5.893 5.893 2.356-2.356-5.892-5.894 1.768-1.767-7.649-1.78 1.365 5.964h.002-.002l.392 1.708 1.767-1.767z" fill="#AAD8FB"/><path d="M45.834 35.833V12.5a1.671 1.671 0 00-1.667-1.667H42.5V32.5h-6.952l3.475 3.477-2.356 2.356-5.834-5.833h-.118l-1.708 1.708-.392-1.708H7.5V10.833H5.833A1.671 1.671 0 004.168 12.5v23.333l-3.334 10h18.334L20 42.5h10l.834 3.333h18.333l-3.334-10z" fill="#AAD8FB"/><path d="M30.715 32.5h.118l-.059-.06-.059.06z" fill="#AAD8FB"/><path d="M17.873 16.754a.836.836 0 00-1.119.374l-.92 1.842-.917-1.842a.869.869 0 00-1.492 0L12.5 18.97l-.917-1.842a.834.834 0 10-1.491.745l1.666 3.333a.868.868 0 001.492 0l.917-1.843.92 1.843a.833.833 0 001.492 0l1.667-3.333a.833.833 0 00-.373-1.119zm8.711 4.452l1.666-3.334a.834.834 0 10-1.491-.745l-.925 1.843-.917-1.843a.869.869 0 00-1.492 0L22.5 18.97l-.916-1.843a.834.834 0 00-1.492.745l1.667 3.334a.868.868 0 001.491 0l.917-1.843.917 1.843a.833.833 0 001.491 0h.009zm5.166 0a.868.868 0 001.492 0l.925-1.843.916 1.843a.833.833 0 001.492 0l1.667-3.334a.834.834 0 00-1.492-.745l-.917 1.843-.916-1.843a.87.87 0 00-1.492 0L32.5 18.97l-.917-1.843a.834.834 0 00-1.491.745l1.658 3.334zm-11.992-.964a.873.873 0 00-1.183 0 .862.862 0 00-.175.275.833.833 0 00-.067.316c.004.22.09.432.242.592.08.075.173.135.275.175a.833.833 0 00.637.005.825.825 0 00.446-1.088.965.965 0 00-.175-.275zm9.408 1.425a.834.834 0 00.592-1.425l-.125-.1a.646.646 0 00-.15-.075.75.75 0 00-.633 0 .652.652 0 00-.151.075l-.124.1a.834.834 0 00.591 1.425zm9.409-.242c.16.152.37.239.592.242a.993.993 0 00.157-.017.505.505 0 00.16-.05.471.471 0 00.14-.075.852.852 0 00.126-.1.865.865 0 00.25-.592.847.847 0 00-.25-.591.861.861 0 00-1.175 0 .873.873 0 00-.242.591.7.7 0 00.067.317.963.963 0 00.175.275z" fill="#11345C"/><path d="M46.667 35.698V12.5a2.5 2.5 0 00-2.5-2.5h-.834V2.5a2.5 2.5 0 00-2.5-2.5H9.167a2.5 2.5 0 00-2.5 2.5V10h-.834a2.5 2.5 0 00-2.5 2.5v23.198L0 45.698V47.5A2.5 2.5 0 002.5 50h45a2.5 2.5 0 002.5-2.5v-1.802l-3.333-10zM31.483 45l-.675-2.703a.833.833 0 00-.808-.63H20a.833.833 0 00-.808.63L18.516 45H1.989l2.779-8.333h29.054l2.255 2.255a.834.834 0 001.179 0l2.256-2.255h5.72L48.011 45H31.483zm-1.717 0h-9.532l.417-1.667h8.698L29.766 45zM8.333 8.333h33.334v23.334h-5.775l-1.583-1.584 1.178-1.179a.834.834 0 00-.4-1.4l-7.648-1.779a.833.833 0 00-1 1l1.131 4.942H8.333V8.333zM28.36 27.65l4.89 1.138-.706.707a.833.833 0 000 1.178l5.303 5.303-1.18 1.179-5.304-5.303a.833.833 0 00-1.178 0l-.702.701-1.123-4.903zm1.236 7.148l1.178-1.179L32.155 35H29.25a.823.823 0 00.346-.203zm14.57-23.131A.834.834 0 0145 12.5V35h-5.774l-1.667-1.667H42.5a.834.834 0 00.833-.833V11.667h.834zM8.334 2.5a.833.833 0 01.834-.833h31.666a.833.833 0 01.834.833v4.167H8.333V2.5zM5 12.5a.833.833 0 01.833-.833h.834V32.5a.833.833 0 00.833.833h20.452l.242 1.061a.832.832 0 00.561.606H5V12.5zm42.5 35.833h-45a.834.834 0 01-.833-.833v-.833h46.666v.833a.834.834 0 01-.833.833z" fill="#11345C"/><path d="M29.166 38.333h1.667V40h-1.666v-1.667zm-23.333 0H7.5V40H5.833v-1.667zm3.334 0h1.666V40H9.167v-1.667zm3.333 0h1.667V40H12.5v-1.667zm3.333 0H17.5V40h-1.667v-1.667zm16.667 0h1.667V40H32.5v-1.667zm6.667 0h1.666V40h-1.666v-1.667zm-20 0h1.666V40h-1.666v-1.667zm3.333 0h1.666V40H22.5v-1.667zm3.334 0H27.5V40h-1.666v-1.667zm16.666 0h1.667V40H42.5v-1.667zm-10 3.334h5v1.666h-5v-1.666zm6.667 0h1.666v1.666h-1.666v-1.666zm3.333 0h1.667v1.666H42.5v-1.666zm-36.667 0H7.5v1.666H5.833v-1.666zm3.334 0h1.666v1.666H9.167v-1.666zm3.333 0h5v1.666h-5v-1.666zM39.167 3.333h-15a.833.833 0 000 1.667h15a.833.833 0 100-1.667zm-27.501 0h-.833a.833.833 0 000 1.667h.833a.833.833 0 000-1.667zm3.334 0h-.833a.833.833 0 000 1.667H15a.833.833 0 000-1.667zm3.333 0H17.5A.833.833 0 0017.5 5h.833a.833.833 0 000-1.667z" fill="#11345C"/></svg>