<svg width="110" height="110" fill="none" xmlns="http://www.w3.org/2000/svg"><g filter="url(#filter0_ddd_1404_555)"><path d="M59.55 82.839h-9.098a3.035 3.035 0 00-3.032 3.032v3.032a3.035 3.035 0 003.032 3.032h9.097a3.035 3.035 0 003.032-3.032v-3.032a3.035 3.035 0 00-3.032-3.032zm-9.098 6.064v-3.032h9.097l.003 3.032h-9.1z" fill="#11345C"/></g><g filter="url(#filter1_ddd_1404_555)"><path d="M38.323 82.839h-3.032a3.035 3.035 0 00-3.032 3.032v3.032a3.035 3.035 0 003.032 3.032h3.032a3.035 3.035 0 003.033-3.032v-3.032a3.035 3.035 0 00-3.033-3.032zm-3.032 6.064v-3.032h3.032l.003 3.032h-3.035z" fill="#11345C"/></g><g filter="url(#filter2_ddd_1404_555)"><path d="M74.71 82.839h-3.032a3.035 3.035 0 00-3.032 3.032v3.032a3.035 3.035 0 003.032 3.032h3.032a3.035 3.035 0 003.033-3.032v-3.032a3.035 3.035 0 00-3.032-3.032zm-3.032 6.064v-3.032h3.032l.004 3.032h-3.036z" fill="#11345C"/></g><g filter="url(#filter3_ddd_1404_555)"><path d="M55 13.097a1.516 1.516 0 100-3.032 1.516 1.516 0 000 3.032z" fill="#11345C"/></g><g filter="url(#filter4_ddd_1404_555)"><path d="M76.226 13.097a1.516 1.516 0 100-3.032 1.516 1.516 0 000 3.032z" fill="#11345C"/></g><g filter="url(#filter5_ddd_1404_555)"><path d="M102 35.839c0-10.355-8.034-18.853-18.193-19.633v-4.625c0-4.18-3.4-7.581-7.58-7.581H33.773c-4.18 0-7.58 3.4-7.58 7.58v25.998c-9.335 1.326-16.907 9.02-18.036 18.368-.791 6.57 1.416 13.002 6.058 17.644a21.095 21.095 0 0011.976 5.975V90.42c0 4.18 3.401 7.581 7.581 7.581h42.452c4.18 0 7.58-3.4 7.58-7.58V55.47C93.966 54.691 102 46.194 102 35.84zM47.815 48.376l5.082-8.128a3.878 3.878 0 00-3.287-5.925c-.726 0-1.434.203-2.052.59l-8.127 5.08a20.901 20.901 0 00-10.205-2.625V19.161h42.61c-5.548 3.492-9.255 9.653-9.255 16.678 0 10.355 8.034 18.853 18.194 19.632v21.303H40.11c5.393-3.27 9.293-8.892 10.15-15.339.609-4.566-.236-9.061-2.445-13.06zm2.637-36.795V7.032h9.097v4.549A4.554 4.554 0 0155 16.129a4.554 4.554 0 01-4.548-4.548zm36.4 13.645h-9.125c1.196-3.75 2.934-6.065 4.562-6.065 1.628 0 3.367 2.315 4.564 6.065zm12.039 9.097h-7.537a41.563 41.563 0 00-.62-6.065h6.392a16.497 16.497 0 011.765 6.065zm-10.568 0H76.258a37.84 37.84 0 01.697-6.065h10.67c.37 1.833.62 3.87.698 6.065zm-20.87 9.096a16.555 16.555 0 01-1.764-6.064h7.537c.07 2.151.279 4.189.62 6.064h-6.392zm7.098 3.033c.558 1.963 1.269 3.672 2.109 5.065a16.721 16.721 0 01-7.223-5.065h5.114zm-7.097-18.194h6.392a41.563 41.563 0 00-.62 6.065h-7.537a16.555 16.555 0 011.765-6.065zm1.981-3.032a16.743 16.743 0 017.223-5.066c-.838 1.394-1.55 3.102-2.109 5.066h-5.114zm12.856 27.29c-1.63 0-3.366-2.315-4.562-6.064h9.125c-1.198 3.749-2.934 6.064-4.563 6.064zm-5.336-9.097a37.607 37.607 0 01-.697-6.064h12.065a37.777 37.777 0 01-.697 6.064h-10.67zm14.399-6.064h7.537a16.526 16.526 0 01-1.765 6.064h-6.392a41.36 41.36 0 00.62-6.064zm3.792-12.13h-5.114c-.558-1.963-1.269-3.671-2.109-5.065a16.752 16.752 0 017.223 5.066zM80.775 11.582v4.548h-19.75c.963-1.27 1.556-2.835 1.556-4.548v-4.55h13.645a4.554 4.554 0 014.549 4.549zm-47-4.549H47.42v4.549c0 1.713.592 3.277 1.555 4.548H29.226v-4.548a4.554 4.554 0 014.549-4.549zM11.17 56.31c.971-8.056 7.533-14.685 15.6-15.758.825-.11 1.648-.164 2.464-.164 3.324 0 6.545.907 9.438 2.669l.8.486 9.693-6.058c.534-.334 1.289.094 1.287.712a.842.842 0 01-.127.445l-6.06 9.695.487.8a18.036 18.036 0 012.503 11.9c-1.074 8.068-7.7 14.63-15.759 15.602-5.64.683-11.155-1.212-15.135-5.192-3.98-3.98-5.872-9.496-5.191-15.136zm65.055 38.659h-42.45a4.554 4.554 0 01-4.549-4.549V79.806h51.549V90.42a4.554 4.554 0 01-4.549 4.549zM87.92 51.518c.839-1.393 1.551-3.102 2.11-5.065h5.113a16.734 16.734 0 01-7.223 5.065z" fill="#11345C"/></g><g filter="url(#filter6_ddd_1404_555)"><path d="M32.113 71.574a6.212 6.212 0 002.761.652 6.142 6.142 0 004.37-1.809l2.111-2.112a5.141 5.141 0 001.517-3.66 5.139 5.139 0 00-1.517-3.66l-2.672-2.673a4.227 4.227 0 00-3.011-1.247h-.202a4.237 4.237 0 00-3.81 2.354c-.208.419-.63.678-1.096.678h-.202c-.327 0-.635-.128-.867-.36l-1.424-1.423a1.22 1.22 0 01-.36-.869v-.202c0-.468.259-.888.677-1.097a4.232 4.232 0 002.355-3.809v-.201a4.227 4.227 0 00-1.248-3.012l-2.673-2.672c-1.954-1.955-5.366-1.955-7.32 0l-2.112 2.112c-1.166 1.166-1.809 2.718-1.809 4.512 0 .84.169 1.658.5 2.431a30.461 30.461 0 0014.358 15.23l1.674.837zM18.868 54.316c-.168-.396-.254-.813-.254-1.385 0-.84.327-1.63.92-2.225l2.112-2.11a2.132 2.132 0 011.516-.628c.573 0 1.11.223 1.516.627l2.673 2.673c.232.232.36.54.36.868v.201c0 .469-.26.889-.678 1.098a4.233 4.233 0 00-2.355 3.808v.202c0 1.137.443 2.208 1.248 3.011l1.424 1.424a4.228 4.228 0 003.012 1.249h.202a4.236 4.236 0 003.81-2.354 1.215 1.215 0 011.096-.678h.202c.327 0 .635.127.867.36l2.673 2.672c.404.406.627.943.627 1.516a2.13 2.13 0 01-.627 1.516L37.1 68.273c-.937.936-2.447 1.178-3.633.59l-1.674-.837a27.447 27.447 0 01-12.925-13.71z" fill="#11345C"/></g><g filter="url(#filter7_ddd_1404_555)"><path d="M53.485 58.58h24.258v3.033H53.485V58.58z" fill="#11345C"/></g><g filter="url(#filter8_ddd_1404_555)"><path d="M53.485 64.645h24.258v3.032H53.485v-3.032z" fill="#11345C"/></g><g filter="url(#filter9_ddd_1404_555)"><path d="M53.485 70.71h3.032v3.032h-3.032V70.71z" fill="#11345C"/></g><g filter="url(#filter10_ddd_1404_555)"><path d="M59.55 70.71h18.193v3.032H59.549V70.71z" fill="#11345C"/></g><g filter="url(#filter11_ddd_1404_555)"><path d="M32.259 22.194H47.42v3.032H32.26v-3.032z" fill="#11345C"/></g><g filter="url(#filter12_ddd_1404_555)"><path d="M32.259 28.258H47.42v3.032H32.26v-3.032z" fill="#11345C"/></g><defs><filter id="filter0_ddd_1404_555" x="39.42" y="78.839" width="31.161" height="25.097" filterUnits="userSpaceOnUse" color-interpolation-filters="sRGB"><feFlood flood-opacity="0" result="BackgroundImageFix"/><feColorMatrix in="SourceAlpha" values="0 0 0 0 0 0 0 0 0 0 0 0 0 0 0 0 0 0 127 0" result="hardAlpha"/><feOffset/><feGaussianBlur stdDeviation=".5"/><feColorMatrix values="0 0 0 0 0 0 0 0 0 0 0 0 0 0 0 0 0 0 0.04 0"/><feBlend in2="BackgroundImageFix" result="effect1_dropShadow_1404_555"/><feColorMatrix in="SourceAlpha" values="0 0 0 0 0 0 0 0 0 0 0 0 0 0 0 0 0 0 127 0" result="hardAlpha"/><feOffset/><feGaussianBlur stdDeviation="1"/><feColorMatrix values="0 0 0 0 0.25098 0 0 0 0 0.32549 0 0 0 0 0.980392 0 0 0 0.12 0"/><feBlend in2="effect1_dropShadow_1404_555" result="effect2_dropShadow_1404_555"/><feColorMatrix in="SourceAlpha" values="0 0 0 0 0 0 0 0 0 0 0 0 0 0 0 0 0 0 127 0" result="hardAlpha"/><feOffset dy="4"/><feGaussianBlur stdDeviation="4"/><feColorMatrix values="0 0 0 0 0.25098 0 0 0 0 0.32549 0 0 0 0 0.980392 0 0 0 0.18 0"/><feBlend in2="effect2_dropShadow_1404_555" result="effect3_dropShadow_1404_555"/><feBlend in="SourceGraphic" in2="effect3_dropShadow_1404_555" result="shape"/></filter><filter id="filter1_ddd_1404_555" x="24.259" y="78.839" width="25.097" height="25.097" filterUnits="userSpaceOnUse" color-interpolation-filters="sRGB"><feFlood flood-opacity="0" result="BackgroundImageFix"/><feColorMatrix in="SourceAlpha" values="0 0 0 0 0 0 0 0 0 0 0 0 0 0 0 0 0 0 127 0" result="hardAlpha"/><feOffset/><feGaussianBlur stdDeviation=".5"/><feColorMatrix values="0 0 0 0 0 0 0 0 0 0 0 0 0 0 0 0 0 0 0.04 0"/><feBlend in2="BackgroundImageFix" result="effect1_dropShadow_1404_555"/><feColorMatrix in="SourceAlpha" values="0 0 0 0 0 0 0 0 0 0 0 0 0 0 0 0 0 0 127 0" result="hardAlpha"/><feOffset/><feGaussianBlur stdDeviation="1"/><feColorMatrix values="0 0 0 0 0.25098 0 0 0 0 0.32549 0 0 0 0 0.980392 0 0 0 0.12 0"/><feBlend in2="effect1_dropShadow_1404_555" result="effect2_dropShadow_1404_555"/><feColorMatrix in="SourceAlpha" values="0 0 0 0 0 0 0 0 0 0 0 0 0 0 0 0 0 0 127 0" result="hardAlpha"/><feOffset dy="4"/><feGaussianBlur stdDeviation="4"/><feColorMatrix values="0 0 0 0 0.25098 0 0 0 0 0.32549 0 0 0 0 0.980392 0 0 0 0.18 0"/><feBlend in2="effect2_dropShadow_1404_555" result="effect3_dropShadow_1404_555"/><feBlend in="SourceGraphic" in2="effect3_dropShadow_1404_555" result="shape"/></filter><filter id="filter2_ddd_1404_555" x="60.646" y="78.839" width="25.097" height="25.097" filterUnits="userSpaceOnUse" color-interpolation-filters="sRGB"><feFlood flood-opacity="0" result="BackgroundImageFix"/><feColorMatrix in="SourceAlpha" values="0 0 0 0 0 0 0 0 0 0 0 0 0 0 0 0 0 0 127 0" result="hardAlpha"/><feOffset/><feGaussianBlur stdDeviation=".5"/><feColorMatrix values="0 0 0 0 0 0 0 0 0 0 0 0 0 0 0 0 0 0 0.04 0"/><feBlend in2="BackgroundImageFix" result="effect1_dropShadow_1404_555"/><feColorMatrix in="SourceAlpha" values="0 0 0 0 0 0 0 0 0 0 0 0 0 0 0 0 0 0 127 0" result="hardAlpha"/><feOffset/><feGaussianBlur stdDeviation="1"/><feColorMatrix values="0 0 0 0 0.25098 0 0 0 0 0.32549 0 0 0 0 0.980392 0 0 0 0.12 0"/><feBlend in2="effect1_dropShadow_1404_555" result="effect2_dropShadow_1404_555"/><feColorMatrix in="SourceAlpha" values="0 0 0 0 0 0 0 0 0 0 0 0 0 0 0 0 0 0 127 0" result="hardAlpha"/><feOffset dy="4"/><feGaussianBlur stdDeviation="4"/><feColorMatrix values="0 0 0 0 0.25098 0 0 0 0 0.32549 0 0 0 0 0.980392 0 0 0 0.18 0"/><feBlend in2="effect2_dropShadow_1404_555" result="effect3_dropShadow_1404_555"/><feBlend in="SourceGraphic" in2="effect3_dropShadow_1404_555" result="shape"/></filter><filter id="filter3_ddd_1404_555" x="45.485" y="6.065" width="19.032" height="19.032" filterUnits="userSpaceOnUse" color-interpolation-filters="sRGB"><feFlood flood-opacity="0" result="BackgroundImageFix"/><feColorMatrix in="SourceAlpha" values="0 0 0 0 0 0 0 0 0 0 0 0 0 0 0 0 0 0 127 0" result="hardAlpha"/><feOffset/><feGaussianBlur stdDeviation=".5"/><feColorMatrix values="0 0 0 0 0 0 0 0 0 0 0 0 0 0 0 0 0 0 0.04 0"/><feBlend in2="BackgroundImageFix" result="effect1_dropShadow_1404_555"/><feColorMatrix in="SourceAlpha" values="0 0 0 0 0 0 0 0 0 0 0 0 0 0 0 0 0 0 127 0" result="hardAlpha"/><feOffset/><feGaussianBlur stdDeviation="1"/><feColorMatrix values="0 0 0 0 0.25098 0 0 0 0 0.32549 0 0 0 0 0.980392 0 0 0 0.12 0"/><feBlend in2="effect1_dropShadow_1404_555" result="effect2_dropShadow_1404_555"/><feColorMatrix in="SourceAlpha" values="0 0 0 0 0 0 0 0 0 0 0 0 0 0 0 0 0 0 127 0" result="hardAlpha"/><feOffset dy="4"/><feGaussianBlur stdDeviation="4"/><feColorMatrix values="0 0 0 0 0.25098 0 0 0 0 0.32549 0 0 0 0 0.980392 0 0 0 0.18 0"/><feBlend in2="effect2_dropShadow_1404_555" result="effect3_dropShadow_1404_555"/><feBlend in="SourceGraphic" in2="effect3_dropShadow_1404_555" result="shape"/></filter><filter id="filter4_ddd_1404_555" x="66.71" y="6.065" width="19.032" height="19.032" filterUnits="userSpaceOnUse" color-interpolation-filters="sRGB"><feFlood flood-opacity="0" result="BackgroundImageFix"/><feColorMatrix in="SourceAlpha" values="0 0 0 0 0 0 0 0 0 0 0 0 0 0 0 0 0 0 127 0" result="hardAlpha"/><feOffset/><feGaussianBlur stdDeviation=".5"/><feColorMatrix values="0 0 0 0 0 0 0 0 0 0 0 0 0 0 0 0 0 0 0.04 0"/><feBlend in2="BackgroundImageFix" result="effect1_dropShadow_1404_555"/><feColorMatrix in="SourceAlpha" values="0 0 0 0 0 0 0 0 0 0 0 0 0 0 0 0 0 0 127 0" result="hardAlpha"/><feOffset/><feGaussianBlur stdDeviation="1"/><feColorMatrix values="0 0 0 0 0.25098 0 0 0 0 0.32549 0 0 0 0 0.980392 0 0 0 0.12 0"/><feBlend in2="effect1_dropShadow_1404_555" result="effect2_dropShadow_1404_555"/><feColorMatrix in="SourceAlpha" values="0 0 0 0 0 0 0 0 0 0 0 0 0 0 0 0 0 0 127 0" result="hardAlpha"/><feOffset dy="4"/><feGaussianBlur stdDeviation="4"/><feColorMatrix values="0 0 0 0 0.25098 0 0 0 0 0.32549 0 0 0 0 0.980392 0 0 0 0.18 0"/><feBlend in2="effect2_dropShadow_1404_555" result="effect3_dropShadow_1404_555"/><feBlend in="SourceGraphic" in2="effect3_dropShadow_1404_555" result="shape"/></filter><filter id="filter5_ddd_1404_555" x="0" y="0" width="110" height="110" filterUnits="userSpaceOnUse" color-interpolation-filters="sRGB"><feFlood flood-opacity="0" result="BackgroundImageFix"/><feColorMatrix in="SourceAlpha" values="0 0 0 0 0 0 0 0 0 0 0 0 0 0 0 0 0 0 127 0" result="hardAlpha"/><feOffset/><feGaussianBlur stdDeviation=".5"/><feColorMatrix values="0 0 0 0 0 0 0 0 0 0 0 0 0 0 0 0 0 0 0.04 0"/><feBlend in2="BackgroundImageFix" result="effect1_dropShadow_1404_555"/><feColorMatrix in="SourceAlpha" values="0 0 0 0 0 0 0 0 0 0 0 0 0 0 0 0 0 0 127 0" result="hardAlpha"/><feOffset/><feGaussianBlur stdDeviation="1"/><feColorMatrix values="0 0 0 0 0.25098 0 0 0 0 0.32549 0 0 0 0 0.980392 0 0 0 0.12 0"/><feBlend in2="effect1_dropShadow_1404_555" result="effect2_dropShadow_1404_555"/><feColorMatrix in="SourceAlpha" values="0 0 0 0 0 0 0 0 0 0 0 0 0 0 0 0 0 0 127 0" result="hardAlpha"/><feOffset dy="4"/><feGaussianBlur stdDeviation="4"/><feColorMatrix values="0 0 0 0 0.25098 0 0 0 0 0.32549 0 0 0 0 0.980392 0 0 0 0.18 0"/><feBlend in2="effect2_dropShadow_1404_555" result="effect3_dropShadow_1404_555"/><feBlend in="SourceGraphic" in2="effect3_dropShadow_1404_555" result="shape"/></filter><filter id="filter6_ddd_1404_555" x="7.581" y="40.986" width="43.29" height="43.24" filterUnits="userSpaceOnUse" color-interpolation-filters="sRGB"><feFlood flood-opacity="0" result="BackgroundImageFix"/><feColorMatrix in="SourceAlpha" values="0 0 0 0 0 0 0 0 0 0 0 0 0 0 0 0 0 0 127 0" result="hardAlpha"/><feOffset/><feGaussianBlur stdDeviation=".5"/><feColorMatrix values="0 0 0 0 0 0 0 0 0 0 0 0 0 0 0 0 0 0 0.04 0"/><feBlend in2="BackgroundImageFix" result="effect1_dropShadow_1404_555"/><feColorMatrix in="SourceAlpha" values="0 0 0 0 0 0 0 0 0 0 0 0 0 0 0 0 0 0 127 0" result="hardAlpha"/><feOffset/><feGaussianBlur stdDeviation="1"/><feColorMatrix values="0 0 0 0 0.25098 0 0 0 0 0.32549 0 0 0 0 0.980392 0 0 0 0.12 0"/><feBlend in2="effect1_dropShadow_1404_555" result="effect2_dropShadow_1404_555"/><feColorMatrix in="SourceAlpha" values="0 0 0 0 0 0 0 0 0 0 0 0 0 0 0 0 0 0 127 0" result="hardAlpha"/><feOffset dy="4"/><feGaussianBlur stdDeviation="4"/><feColorMatrix values="0 0 0 0 0.25098 0 0 0 0 0.32549 0 0 0 0 0.980392 0 0 0 0.18 0"/><feBlend in2="effect2_dropShadow_1404_555" result="effect3_dropShadow_1404_555"/><feBlend in="SourceGraphic" in2="effect3_dropShadow_1404_555" result="shape"/></filter><filter id="filter7_ddd_1404_555" x="45.485" y="54.581" width="40.258" height="19.032" filterUnits="userSpaceOnUse" color-interpolation-filters="sRGB"><feFlood flood-opacity="0" result="BackgroundImageFix"/><feColorMatrix in="SourceAlpha" values="0 0 0 0 0 0 0 0 0 0 0 0 0 0 0 0 0 0 127 0" result="hardAlpha"/><feOffset/><feGaussianBlur stdDeviation=".5"/><feColorMatrix values="0 0 0 0 0 0 0 0 0 0 0 0 0 0 0 0 0 0 0.04 0"/><feBlend in2="BackgroundImageFix" result="effect1_dropShadow_1404_555"/><feColorMatrix in="SourceAlpha" values="0 0 0 0 0 0 0 0 0 0 0 0 0 0 0 0 0 0 127 0" result="hardAlpha"/><feOffset/><feGaussianBlur stdDeviation="1"/><feColorMatrix values="0 0 0 0 0.25098 0 0 0 0 0.32549 0 0 0 0 0.980392 0 0 0 0.12 0"/><feBlend in2="effect1_dropShadow_1404_555" result="effect2_dropShadow_1404_555"/><feColorMatrix in="SourceAlpha" values="0 0 0 0 0 0 0 0 0 0 0 0 0 0 0 0 0 0 127 0" result="hardAlpha"/><feOffset dy="4"/><feGaussianBlur stdDeviation="4"/><feColorMatrix values="0 0 0 0 0.25098 0 0 0 0 0.32549 0 0 0 0 0.980392 0 0 0 0.18 0"/><feBlend in2="effect2_dropShadow_1404_555" result="effect3_dropShadow_1404_555"/><feBlend in="SourceGraphic" in2="effect3_dropShadow_1404_555" result="shape"/></filter><filter id="filter8_ddd_1404_555" x="45.485" y="60.645" width="40.258" height="19.032" filterUnits="userSpaceOnUse" color-interpolation-filters="sRGB"><feFlood flood-opacity="0" result="BackgroundImageFix"/><feColorMatrix in="SourceAlpha" values="0 0 0 0 0 0 0 0 0 0 0 0 0 0 0 0 0 0 127 0" result="hardAlpha"/><feOffset/><feGaussianBlur stdDeviation=".5"/><feColorMatrix values="0 0 0 0 0 0 0 0 0 0 0 0 0 0 0 0 0 0 0.04 0"/><feBlend in2="BackgroundImageFix" result="effect1_dropShadow_1404_555"/><feColorMatrix in="SourceAlpha" values="0 0 0 0 0 0 0 0 0 0 0 0 0 0 0 0 0 0 127 0" result="hardAlpha"/><feOffset/><feGaussianBlur stdDeviation="1"/><feColorMatrix values="0 0 0 0 0.25098 0 0 0 0 0.32549 0 0 0 0 0.980392 0 0 0 0.12 0"/><feBlend in2="effect1_dropShadow_1404_555" result="effect2_dropShadow_1404_555"/><feColorMatrix in="SourceAlpha" values="0 0 0 0 0 0 0 0 0 0 0 0 0 0 0 0 0 0 127 0" result="hardAlpha"/><feOffset dy="4"/><feGaussianBlur stdDeviation="4"/><feColorMatrix values="0 0 0 0 0.25098 0 0 0 0 0.32549 0 0 0 0 0.980392 0 0 0 0.18 0"/><feBlend in2="effect2_dropShadow_1404_555" result="effect3_dropShadow_1404_555"/><feBlend in="SourceGraphic" in2="effect3_dropShadow_1404_555" result="shape"/></filter><filter id="filter9_ddd_1404_555" x="45.485" y="66.71" width="19.032" height="19.032" filterUnits="userSpaceOnUse" color-interpolation-filters="sRGB"><feFlood flood-opacity="0" result="BackgroundImageFix"/><feColorMatrix in="SourceAlpha" values="0 0 0 0 0 0 0 0 0 0 0 0 0 0 0 0 0 0 127 0" result="hardAlpha"/><feOffset/><feGaussianBlur stdDeviation=".5"/><feColorMatrix values="0 0 0 0 0 0 0 0 0 0 0 0 0 0 0 0 0 0 0.04 0"/><feBlend in2="BackgroundImageFix" result="effect1_dropShadow_1404_555"/><feColorMatrix in="SourceAlpha" values="0 0 0 0 0 0 0 0 0 0 0 0 0 0 0 0 0 0 127 0" result="hardAlpha"/><feOffset/><feGaussianBlur stdDeviation="1"/><feColorMatrix values="0 0 0 0 0.25098 0 0 0 0 0.32549 0 0 0 0 0.980392 0 0 0 0.12 0"/><feBlend in2="effect1_dropShadow_1404_555" result="effect2_dropShadow_1404_555"/><feColorMatrix in="SourceAlpha" values="0 0 0 0 0 0 0 0 0 0 0 0 0 0 0 0 0 0 127 0" result="hardAlpha"/><feOffset dy="4"/><feGaussianBlur stdDeviation="4"/><feColorMatrix values="0 0 0 0 0.25098 0 0 0 0 0.32549 0 0 0 0 0.980392 0 0 0 0.18 0"/><feBlend in2="effect2_dropShadow_1404_555" result="effect3_dropShadow_1404_555"/><feBlend in="SourceGraphic" in2="effect3_dropShadow_1404_555" result="shape"/></filter><filter id="filter10_ddd_1404_555" x="51.549" y="66.71" width="34.194" height="19.032" filterUnits="userSpaceOnUse" color-interpolation-filters="sRGB"><feFlood flood-opacity="0" result="BackgroundImageFix"/><feColorMatrix in="SourceAlpha" values="0 0 0 0 0 0 0 0 0 0 0 0 0 0 0 0 0 0 127 0" result="hardAlpha"/><feOffset/><feGaussianBlur stdDeviation=".5"/><feColorMatrix values="0 0 0 0 0 0 0 0 0 0 0 0 0 0 0 0 0 0 0.04 0"/><feBlend in2="BackgroundImageFix" result="effect1_dropShadow_1404_555"/><feColorMatrix in="SourceAlpha" values="0 0 0 0 0 0 0 0 0 0 0 0 0 0 0 0 0 0 127 0" result="hardAlpha"/><feOffset/><feGaussianBlur stdDeviation="1"/><feColorMatrix values="0 0 0 0 0.25098 0 0 0 0 0.32549 0 0 0 0 0.980392 0 0 0 0.12 0"/><feBlend in2="effect1_dropShadow_1404_555" result="effect2_dropShadow_1404_555"/><feColorMatrix in="SourceAlpha" values="0 0 0 0 0 0 0 0 0 0 0 0 0 0 0 0 0 0 127 0" result="hardAlpha"/><feOffset dy="4"/><feGaussianBlur stdDeviation="4"/><feColorMatrix values="0 0 0 0 0.25098 0 0 0 0 0.32549 0 0 0 0 0.980392 0 0 0 0.18 0"/><feBlend in2="effect2_dropShadow_1404_555" result="effect3_dropShadow_1404_555"/><feBlend in="SourceGraphic" in2="effect3_dropShadow_1404_555" result="shape"/></filter><filter id="filter11_ddd_1404_555" x="24.259" y="18.194" width="31.161" height="19.032" filterUnits="userSpaceOnUse" color-interpolation-filters="sRGB"><feFlood flood-opacity="0" result="BackgroundImageFix"/><feColorMatrix in="SourceAlpha" values="0 0 0 0 0 0 0 0 0 0 0 0 0 0 0 0 0 0 127 0" result="hardAlpha"/><feOffset/><feGaussianBlur stdDeviation=".5"/><feColorMatrix values="0 0 0 0 0 0 0 0 0 0 0 0 0 0 0 0 0 0 0.04 0"/><feBlend in2="BackgroundImageFix" result="effect1_dropShadow_1404_555"/><feColorMatrix in="SourceAlpha" values="0 0 0 0 0 0 0 0 0 0 0 0 0 0 0 0 0 0 127 0" result="hardAlpha"/><feOffset/><feGaussianBlur stdDeviation="1"/><feColorMatrix values="0 0 0 0 0.25098 0 0 0 0 0.32549 0 0 0 0 0.980392 0 0 0 0.12 0"/><feBlend in2="effect1_dropShadow_1404_555" result="effect2_dropShadow_1404_555"/><feColorMatrix in="SourceAlpha" values="0 0 0 0 0 0 0 0 0 0 0 0 0 0 0 0 0 0 127 0" result="hardAlpha"/><feOffset dy="4"/><feGaussianBlur stdDeviation="4"/><feColorMatrix values="0 0 0 0 0.25098 0 0 0 0 0.32549 0 0 0 0 0.980392 0 0 0 0.18 0"/><feBlend in2="effect2_dropShadow_1404_555" result="effect3_dropShadow_1404_555"/><feBlend in="SourceGraphic" in2="effect3_dropShadow_1404_555" result="shape"/></filter><filter id="filter12_ddd_1404_555" x="24.259" y="24.258" width="31.161" height="19.032" filterUnits="userSpaceOnUse" color-interpolation-filters="sRGB"><feFlood flood-opacity="0" result="BackgroundImageFix"/><feColorMatrix in="SourceAlpha" values="0 0 0 0 0 0 0 0 0 0 0 0 0 0 0 0 0 0 127 0" result="hardAlpha"/><feOffset/><feGaussianBlur stdDeviation=".5"/><feColorMatrix values="0 0 0 0 0 0 0 0 0 0 0 0 0 0 0 0 0 0 0.04 0"/><feBlend in2="BackgroundImageFix" result="effect1_dropShadow_1404_555"/><feColorMatrix in="SourceAlpha" values="0 0 0 0 0 0 0 0 0 0 0 0 0 0 0 0 0 0 127 0" result="hardAlpha"/><feOffset/><feGaussianBlur stdDeviation="1"/><feColorMatrix values="0 0 0 0 0.25098 0 0 0 0 0.32549 0 0 0 0 0.980392 0 0 0 0.12 0"/><feBlend in2="effect1_dropShadow_1404_555" result="effect2_dropShadow_1404_555"/><feColorMatrix in="SourceAlpha" values="0 0 0 0 0 0 0 0 0 0 0 0 0 0 0 0 0 0 127 0" result="hardAlpha"/><feOffset dy="4"/><feGaussianBlur stdDeviation="4"/><feColorMatrix values="0 0 0 0 0.25098 0 0 0 0 0.32549 0 0 0 0 0.980392 0 0 0 0.18 0"/><feBlend in2="effect2_dropShadow_1404_555" result="effect3_dropShadow_1404_555"/><feBlend in="SourceGraphic" in2="effect3_dropShadow_1404_555" result="shape"/></filter></defs></svg>