<svg width="48" height="48" fill="none" xmlns="http://www.w3.org/2000/svg"><path d="M47.047 17.647a.781.781 0 00.39-.678v-6.25a.78.78 0 00-.39-.678l-5.469-3.125a.781.781 0 00-.775 0l-5.469 3.125a.78.78 0 00-.397.678v1.86l-4.687-2.343V4.469a.78.78 0 00-.39-.678L24.39.666a.781.781 0 00-.774 0l-5.47 3.125a.78.78 0 00-.396.678v5.767l-4.688 2.344v-1.861a.78.78 0 00-.39-.678L7.203 6.916a.781.781 0 00-.775 0L.96 10.04a.78.78 0 00-.396.678v6.25a.781.781 0 00.39.678l5.078 2.9v6.906l-5.078 2.9a.782.782 0 00-.39.678v6.25a.781.781 0 00.39.678l5.469 3.125a.781.781 0 00.775 0l5.063-2.89 5.49 3.427v1.91a.78.78 0 00.39.678l5.47 3.125a.781.781 0 00.774 0l5.47-3.125a.781.781 0 00.396-.678v-1.91l5.487-3.43 5.063 2.891a.781.781 0 00.775 0l5.469-3.125a.781.781 0 00.394-.676v-6.25a.78.78 0 00-.391-.678l-5.078-2.9v-6.906l5.078-2.9zm-5.078 1.1v-4.453l3.906-2.232v4.454l-3.906 2.232zm-.782 14.51l-3.894-2.226 3.895-2.225 3.894 2.225-3.895 2.225zM36.5 12.064l3.906 2.232v4.453L36.5 16.516v-4.451zm4.688-3.571l3.894 2.225-3.895 2.225-3.894-2.225 3.895-2.225zM24 39.509l-3.895-2.228L24 35.056l3.895 2.225L24 39.51zm-4.688-17.288l3.907 2.232v4.453l-3.907-2.234v-4.45zm5.47 2.232l3.905-2.232v4.453l-3.906 2.232v-4.453zM24 23.1l-3.895-2.225L24 18.65l3.895 2.225L24 23.1zM19.312 5.815l3.907 2.232V12.5l-3.907-2.234V5.815zm5.47 2.232l3.905-2.232v4.453L24.782 12.5V8.047zM24 2.244l3.895 2.225L24 6.694l-3.895-2.225L24 2.244zM7.594 14.297l3.906-2.232v4.453L7.594 18.75v-4.453zm-.782-5.803l3.895 2.225-3.895 2.225-3.894-2.225 3.894-2.225zm-4.687 3.57l3.906 2.233v4.453l-3.906-2.234v-4.451zm4.688 21.192l-3.895-2.225 3.894-2.225 3.895 2.225-3.895 2.225zm-4.688-.879l3.906 2.232v4.453l-3.906-2.234v-4.45zm5.469 6.683v-4.453l3.906-2.232v4.453L7.594 39.06zm5.468-2.212V31.03a.78.78 0 00-.39-.678l-5.078-2.9v-6.906l5.078-2.9a.781.781 0 00.39-.678v-2.642l5.445-2.722 4.712 2.692v3l-5.078 2.9a.78.78 0 00-.391.678v6.25a.78.78 0 00.39.678l5.079 2.9v3l-5.078 2.9a.782.782 0 00-.391.678v2.5l-4.688-2.933zm6.25 1.78l3.907 2.231v4.453l-3.907-2.234v-4.45zm5.47 6.682v-4.453l3.905-2.232v4.453l-3.906 2.232zm5.077-8.707l-5.078-2.9v-3l5.078-2.9a.78.78 0 00.391-.678v-6.25a.78.78 0 00-.39-.678l-5.079-2.9v-3l4.712-2.692 5.445 2.722v2.642a.78.78 0 00.39.678l5.078 2.9v6.906l-5.078 2.9a.782.782 0 00-.39.678v5.817L30.25 39.78v-2.5a.78.78 0 00-.39-.678zm6.641-4.226l3.906 2.232v4.453L36.5 36.828v-4.45zm5.469 6.683v-4.453l3.906-2.232v4.453l-3.906 2.232z" fill="#11345C"/></svg>