<svg width="24" height="24" fill="none" xmlns="http://www.w3.org/2000/svg"><path d="M19.552 2.997a2.23 2.23 0 00-.7.167h-.002c-.214.085-1.23.512-2.775 1.16l-5.537 2.332-7.878 3.32.047-.018s-.27.088-.55.28a1.527 1.527 0 00-.44.426 1.246 1.246 0 00-.208.833c.067.541.418.866.67 1.045.255.182.498.266.498.266h.006l3.663 1.234c.164.527 1.116 3.656 1.344 4.377.135.43.267.7.431.905.08.105.172.193.284.264a.87.87 0 00.185.08l-.038-.01c.011.003.02.012.029.015.03.008.05.011.088.017.58.176 1.046-.184 1.046-.184l.026-.021 2.162-1.969 3.624 2.78.083.036c.755.331 1.52.147 1.924-.179.408-.328.566-.747.566-.747l.026-.067 2.8-14.347c.08-.354.1-.686.013-1.007a1.36 1.36 0 00-.586-.786 1.404 1.404 0 00-.8-.202zm-.075 1.537c-.003.048.006.042-.015.133v.008l-2.774 14.198c-.012.02-.033.064-.088.109-.059.046-.105.075-.349-.021l-4.433-3.399-2.677 2.44.562-3.592 7.242-6.75c.299-.277.2-.336.2-.336.02-.34-.451-.1-.451-.1L7.56 12.883l-.003-.015-4.377-1.474v-.003l-.01-.002a.185.185 0 00.022-.01l.024-.011.023-.008 7.881-3.32c1.989-.838 3.993-1.681 5.534-2.332 1.541-.648 2.68-1.122 2.745-1.148.062-.024.033-.024.077-.024z" fill="#fff"/></svg>