<svg width="149" height="53" fill="none" xmlns="http://www.w3.org/2000/svg"><path d="M41.763 37.564a7.35 7.35 0 00-1.038 4.394l3.013-1.737a2.51 2.51 0 001.254-2.172v-3.551a7.376 7.376 0 00-3.23 3.066zm-9.115-5.252c-3.136 5.426-4.16 11.317-3.233 16.169l5.111-2.934c-.695-3.3-.045-7.292 2.07-10.95 2.113-3.657 5.21-6.18 8.404-7.243V21.46c-4.661 1.633-9.23 5.452-12.352 10.852z" fill="#fff"/><path d="M37.712 35.236c-1.865 3.228-2.508 6.72-2.014 9.629l3.825-2.221a5.953 5.953 0 01-.088-.559 9.102 9.102 0 011.203-5.176 9.12 9.12 0 013.889-3.626c.155-.068.323-.123.462-.178v-4.402c-2.741 1.03-5.424 3.328-7.277 6.533zM22.608 8.132c3.207-.039 6.207-.946 8.505-2.56l-3.811-2.195a8.79 8.79 0 01-4.733 1.385h-.122a8.705 8.705 0 01-4.791-1.359l-3.85 2.218c2.217 1.556 5.253 2.511 8.592 2.511h.21z" fill="#fff"/><path d="M26.032 2.64L23.77 1.331a2.505 2.505 0 00-2.51 0L18.957 2.66c1.12.56 2.36.837 3.61.81a7.807 7.807 0 003.466-.83zm-3.349 11.329c5.82-.068 11.037-1.901 14.719-4.774L32.339 6.29l-.145.113c-2.55 1.91-5.945 2.985-9.566 3.03h-.223c-3.846 0-7.325-1.19-9.798-3.105l-5.13 2.954c.217.17.436.323.666.497 3.895 2.763 9.055 4.26 14.54 4.19zM.38 34.47a4.288 4.288 0 00-.369-.142v3.728a2.505 2.505 0 001.254 2.172l3.408 1.966c0-.08.029-.155.035-.236A7.822 7.822 0 00.38 34.47zm1.36-12.484a15.5 15.5 0 00-1.729-.646v5.884c.51.15 1.008.332 1.494.546 2.91 1.291 5.521 3.715 7.331 6.846 1.81 3.131 2.616 6.595 2.263 9.761a12.17 12.17 0 01-.242 1.414l5.1 2.94c.114-.541.201-1.1.263-1.671.517-4.752-.708-9.98-3.446-14.72-2.738-4.738-6.653-8.437-11.033-10.354z" fill="#fff"/><path d="M.994 28.925a10.919 10.919 0 00-.97-.378v4.432c.304.087.603.195.892.323a9.133 9.133 0 013.889 3.63 9.115 9.115 0 011.203 5.18c-.03.26-.075.52-.136.777l3.83 2.211c.055-.287.1-.578.133-.878.323-2.905-.433-6.081-2.104-8.973C6.059 32.356 3.654 30.1.994 28.925zm15.092-7.91l4.85-2.785a3.165 3.165 0 013.154 0l4.85 2.785c.217.127.418.28.597.456l14.625-8.335a2.413 2.413 0 00-.401-.293l-5.15-2.97c-3.924 3.228-9.584 5.306-15.891 5.38h-.395c-5.618 0-10.913-1.571-14.944-4.444a20.146 20.146 0 01-1.11-.859l-5.01 2.89a2.89 2.89 0 00-.323.225L15.562 21.4a3.21 3.21 0 01.524-.384zm4.839 13.825l-4.849-2.786a3.167 3.167 0 01-1.578-2.73v-5.572a3.13 3.13 0 01.288-1.291L.168 14.133c-.11.285-.167.588-.168.894v4.942a19.02 19.02 0 012.263.826c4.629 2.04 8.764 5.9 11.637 10.878 2.874 4.978 4.16 10.481 3.615 15.494a19.88 19.88 0 01-.375 2.208l4.105 2.366c.171.098.353.175.543.23V35.184a3.054 3.054 0 01-.863-.345zM44.86 14.238L30.254 22.56c.161.383.243.795.243 1.21v5.572a3.16 3.16 0 01-1.578 2.73l-4.849 2.786a3.101 3.101 0 01-.995.361v16.786c.236-.054.463-.143.672-.265l4.5-2.582c-1.138-5.242-.11-11.62 3.275-17.486 3.384-5.865 8.369-9.903 13.46-11.556v-5.093a2.461 2.461 0 00-.122-.785zM25.423 28.847l-2.365 1.339a1.113 1.113 0 01-1.091 0l-2.366-1.34a1.077 1.077 0 01-.4-.39 1.048 1.048 0 01-.145-.533V25.26c0-.188.05-.372.146-.534a1.07 1.07 0 01.4-.39l2.365-1.34a1.112 1.112 0 011.09 0l2.366 1.34c.166.093.304.228.4.39.096.162.146.346.146.534v2.678a1.049 1.049 0 01-.15.524c-.096.16-.232.292-.396.384z" fill="#fff"/><path d="M22.504 33.847c-.448 0-.888-.119-1.277-.342l-4.124-2.38a2.56 2.56 0 01-1.293-2.207V24.16a2.554 2.554 0 011.293-2.208l4.124-2.379a2.59 2.59 0 012.554 0l4.125 2.379A2.558 2.558 0 0129.2 24.16v4.758a2.557 2.557 0 01-1.273 2.208L23.8 33.505a2.566 2.566 0 01-1.297.342zm0-12.68a.612.612 0 00-.307.085l-4.125 2.379a.604.604 0 00-.323.529v4.758a.603.603 0 00.323.53l4.125 2.381a.621.621 0 00.614 0l4.125-2.379a.604.604 0 00.324-.529V24.16a.603.603 0 00-.324-.53l-4.125-2.378a.612.612 0 00-.307-.084zm45.668 8.374c0-.498-.176-.879-.528-1.143-.351-.27-.984-.55-1.898-.843-.914-.3-1.638-.592-2.17-.88-1.454-.784-2.18-1.842-2.18-3.172 0-.692.193-1.307.58-1.846.392-.545.952-.97 1.678-1.274.733-.305 1.553-.457 2.461-.457.914 0 1.729.167 2.444.5.714.329 1.268.795 1.66 1.398.4.604.598 1.29.598 2.057h-2.636c0-.586-.185-1.04-.554-1.362-.37-.329-.888-.493-1.556-.493-.644 0-1.145.138-1.503.413a1.28 1.28 0 00-.536 1.073c0 .416.208.764.624 1.046.422.28 1.04.544 1.855.79 1.5.452 2.593 1.011 3.278 1.68.686.667 1.028 1.5 1.028 2.495 0 1.108-.419 1.978-1.256 2.61-.838.628-1.966.941-3.384.941-.985 0-1.881-.178-2.69-.536-.808-.363-1.427-.858-1.854-1.485-.422-.627-.633-1.354-.633-2.18h2.645c0 1.412.844 2.118 2.532 2.118.627 0 1.116-.126 1.467-.378.352-.258.528-.615.528-1.072zm14.071-7.304h-3.92v10.661h-2.636v-10.66h-3.868v-2.136h10.424v2.135zm4.316 10.661h-2.637V20.102h2.637v12.796zm12.858 0H96.78l-5.133-8.42v8.42h-2.636V20.102h2.636l5.142 8.437v-8.437h2.628v12.796zm11.988-12.796v8.428c0 1.4-.439 2.508-1.318 3.322-.873.815-2.068 1.222-3.586 1.222-1.494 0-2.681-.395-3.56-1.186-.879-.791-1.327-1.878-1.344-3.261v-8.525h2.636v8.446c0 .838.2 1.45.598 1.837.404.38.961.571 1.67.571 1.482 0 2.235-.78 2.259-2.338v-8.516h2.645zm5.608 0l3.287 9.28 3.269-9.28h3.463v12.796h-2.645V29.4l.263-6.038-3.454 9.536h-1.81l-3.446-9.527.264 6.03v3.497h-2.637V20.102h3.446zm19.608 12.796h-2.637V20.102h2.637v12.796zm11.821-10.661h-3.92v10.661h-2.636v-10.66h-3.867v-2.136h10.423v2.135z" fill="#fff"/></svg>