<svg width="20" height="20" fill="none" xmlns="http://www.w3.org/2000/svg"><path d="M17.5 19.75h-.127C2.635 18.902.543 6.468.25 2.672A2.25 2.25 0 012.32.25h4.133a1.5 1.5 0 011.395.945L8.988 4a1.5 1.5 0 01-.33 1.62L7.06 7.232a7.027 7.027 0 005.685 5.7l1.628-1.612A1.499 1.499 0 0116 11.012l2.828 1.133a1.5 1.5 0 01.922 1.395v3.96a2.25 2.25 0 01-2.25 2.25zm-15-18a.75.75 0 00-.75.75v.06C2.095 7 4.308 17.5 17.455 18.25a.749.749 0 00.795-.705V13.54l-2.827-1.132-2.153 2.137-.36-.045C6.385 13.682 5.5 7.157 5.5 7.09l-.045-.36 2.13-2.153L6.46 1.75H2.5z" fill="#11345C"/></svg>