<svg width="51" height="54" fill="none" xmlns="http://www.w3.org/2000/svg"><path d="M33.3.9H17.1a3.6 3.6 0 00-3.6 3.6v14.4a2.2 2.2 0 01.302.136l2.398 1.386V6.3h18v27H18.69a2.241 2.241 0 01-3.24 2.684l-1.95-1.125v.241a2.2 2.2 0 01.302.136l3.896 2.25a2.25 2.25 0 01.851 3.014H33.3a3.6 3.6 0 003.6-3.6V4.5A3.6 3.6 0 0033.3.9zm-8.1 37.8a1.8 1.8 0 110-3.6 1.8 1.8 0 010 3.6z" fill="#AAD8FB"/><path d="M16.2 31.222v-.376a2.217 2.217 0 01-.752-.262L13.5 29.459v.24a2.2 2.2 0 01.302.137l2.398 1.386zm0-5.4v-.375a2.217 2.217 0 01-.752-.263L13.5 24.059v.241a2.2 2.2 0 01.302.136l2.398 1.386z" fill="#AAD8FB"/><path d="M41.627 15.518l-1.28-1.266a3.62 3.62 0 000-5.104l1.28-1.266a5.419 5.419 0 010 7.636zm5.116 5.066l-1.279-1.267a10.819 10.819 0 000-15.234l1.279-1.267a12.62 12.62 0 010 17.768z" fill="#11345C"/><path d="M44.19 18.051l-1.28-1.267a7.218 7.218 0 000-10.17l1.28-1.265a9.022 9.022 0 010 12.702zM8.773 15.518a5.419 5.419 0 010-7.636l1.28 1.266a3.62 3.62 0 000 5.104l-1.28 1.266zm-5.117 5.066a12.622 12.622 0 010-17.768l1.28 1.267a10.819 10.819 0 000 15.234l-1.28 1.267z" fill="#11345C"/><path d="M6.214 18.051a9.022 9.022 0 010-12.702l1.28 1.267a7.218 7.218 0 000 10.17l-1.28 1.265zM41.4 19.8h-.9a4.453 4.453 0 00-2.7.923V4.5A4.505 4.505 0 0033.3 0H17.1a4.505 4.505 0 00-4.5 4.5v13.345a3.18 3.18 0 00-.738.097 3.15 3.15 0 00-.792 5.749 3.126 3.126 0 000 5.4 3.126 3.126 0 000 5.4 3.13 3.13 0 00.031 5.422l1.488.86.01 2.136c.006.969.321 1.91.9 2.686l1.26 1.685c.35.468.54 1.036.54 1.62v4.2a.9.9 0 001.8 0v-4.2a4.525 4.525 0 00-.9-2.7l-1.26-1.685a2.717 2.717 0 01-.54-1.612v-1.09l.606.35a3.134 3.134 0 002.39.315 3.12 3.12 0 001.627-1.078H33.3a4.505 4.505 0 004.5-4.5V24.3a2.7 2.7 0 012.7-2.7h.9v14.518a9.834 9.834 0 01-3.823 7.814l-2.54 1.98a4.471 4.471 0 00-1.737 3.55V53.1a.9.9 0 001.8 0v-3.639a2.72 2.72 0 011.042-2.132l2.54-1.98a11.626 11.626 0 004.518-9.231V21.6a1.8 1.8 0 00-1.8-1.8zM17.742 40.11a1.35 1.35 0 01-1.844.494l-3.897-2.25a1.35 1.35 0 111.35-2.34l3.897 2.25a1.348 1.348 0 01.494 1.846zm0-5.4a1.35 1.35 0 01-1.844.494l-3.897-2.25a1.35 1.35 0 111.35-2.34l3.897 2.25a1.348 1.348 0 01.494 1.846zm0-5.4a1.35 1.35 0 01-1.844.494l-3.897-2.25a1.35 1.35 0 111.35-2.34l3.897 2.25a1.348 1.348 0 01.494 1.846zm0-5.4a1.35 1.35 0 01-1.844.494l-3.897-2.25a1.35 1.35 0 111.35-2.34l3.897 2.25a1.348 1.348 0 01.494 1.846zm-.642-4.008V7.2h16.2v25.2H19.247a3.105 3.105 0 00-1.067-1.07 3.126 3.126 0 000-5.4 3.13 3.13 0 00-.032-5.423l-1.048-.605zM36 36.9a2.7 2.7 0 01-2.7 2.7H19.71a3.143 3.143 0 00-1.53-2.87 3.041 3.041 0 001.53-2.53H34.2a.9.9 0 00.9-.9v-27a.9.9 0 00-.9-.9h-18a.9.9 0 00-.9.9v12.563l-.9-.52V4.5a2.7 2.7 0 012.7-2.7h16.2A2.7 2.7 0 0136 4.5v32.4z" fill="#11345C"/><path d="M25.2 39.6a2.7 2.7 0 110-5.4 2.7 2.7 0 010 5.4zm0-3.6a.9.9 0 100 1.8.9.9 0 000-1.8zm.9-31.5h-1.8a.9.9 0 110-1.8h1.8a.9.9 0 010 1.8z" fill="#11345C"/></svg>