<svg width="98" height="98" fill="none" xmlns="http://www.w3.org/2000/svg"><path d="M77.452 50.58H64.807V31.614H36.355v12.645H23.71v25.29H4.437l1.227 2.32C14.188 87.988 30.793 98 49 98c18.208 0 34.812-10.013 43.337-26.131l1.226-2.32H77.452V50.58zM74.29 69.549H58.484V53.742H74.29v15.806zM49 94.838c-2.962 0-5.953-3.535-8.417-9.483h16.834c-2.464 5.948-5.455 9.484-8.417 9.484zm11.84-9.483h16.07a45.65 45.65 0 01-21.09 8.957c1.86-2.132 3.553-5.148 5.018-8.957zm-18.66 8.957a45.684 45.684 0 01-21.09-8.957h16.07c1.465 3.81 3.158 6.825 5.02 8.957zM39.4 82.194c-.945-2.8-1.782-5.985-2.47-9.484h24.137c-.689 3.5-1.523 6.684-2.47 9.484H39.4zm.115-47.42h22.13v15.807h-6.323v18.967h-9.484v-25.29h-6.323v-9.484zM26.871 47.42h15.807v22.13H26.87V47.42zm-17.1 25.29h23.944c.659 3.48 1.443 6.657 2.34 9.485H17.393a45.914 45.914 0 01-7.62-9.484zm78.458 0a45.924 45.924 0 01-7.622 9.485H61.944c.898-2.828 1.682-6.005 2.341-9.484h23.944zM17.387 34.774c9.587 0 17.387-7.8 17.387-17.387S26.974 0 17.387 0 0 7.8 0 17.387s7.8 17.387 17.387 17.387zm-8.902-6.308c1.323-3.764 4.845-6.337 8.902-6.337 4.058 0 7.58 2.573 8.902 6.337a14.149 14.149 0 01-8.902 3.147 14.149 14.149 0 01-8.902-3.147zm4.16-14.24a4.748 4.748 0 014.742-4.742 4.748 4.748 0 014.742 4.742 4.748 4.748 0 01-4.742 4.742 4.748 4.748 0 01-4.742-4.742zM17.387 3.16c7.843 0 14.226 6.381 14.226 14.226a14.14 14.14 0 01-2.92 8.599 12.591 12.591 0 00-6.07-5.885c1.622-1.448 2.667-3.533 2.667-5.875 0-4.358-3.545-7.903-7.903-7.903s-7.903 3.545-7.903 7.903c0 2.342 1.045 4.427 2.668 5.875a12.591 12.591 0 00-6.071 5.885 14.14 14.14 0 01-2.92-8.599c0-7.845 6.383-14.226 14.226-14.226zm63.226 31.614C90.2 34.774 98 26.974 98 17.387S90.2 0 80.613 0 63.226 7.8 63.226 17.387s7.8 17.387 17.387 17.387zm-8.902-6.308c1.323-3.764 4.844-6.337 8.902-6.337 4.057 0 7.58 2.573 8.902 6.337a14.149 14.149 0 01-8.902 3.147 14.149 14.149 0 01-8.902-3.147zm4.16-14.24a4.748 4.748 0 014.742-4.742 4.748 4.748 0 014.742 4.742 4.748 4.748 0 01-4.742 4.742 4.748 4.748 0 01-4.742-4.742zM80.613 3.16c7.843 0 14.226 6.381 14.226 14.226a14.14 14.14 0 01-2.92 8.599 12.59 12.59 0 00-6.071-5.885c1.623-1.448 2.668-3.533 2.668-5.875 0-4.358-3.545-7.903-7.903-7.903s-7.903 3.545-7.903 7.903c0 2.342 1.044 4.427 2.668 5.875a12.591 12.591 0 00-6.071 5.885 14.14 14.14 0 01-2.92-8.599c0-7.845 6.383-14.226 14.226-14.226zM47.42 8.558v13.571h3.16V8.558l5.206 5.205 2.234-2.235L49 2.507l-9.021 9.02 2.235 2.236 5.205-5.205zm0 16.732h3.16v3.162h-3.16V25.29z" fill="#11345C"/><path d="M84.237 39.053l5.206 5.205H74.29v3.161h15.153l-5.206 5.205 2.236 2.235 9.02-9.02-9.02-9.021-2.236 2.235zM13.763 52.624L8.558 47.42h11.99v-3.16H8.559l5.205-5.206-2.235-2.235-9.02 9.02 9.02 9.021 2.235-2.235zM49 44.258h3.161v3.161H49v-3.16zm0 12.645h3.161v3.162H49v-3.162zm0 6.323h3.161v3.161H49v-3.161zm0-12.646h3.161v3.162H49V50.58zm0-12.645h3.161v3.162H49v-3.162zm6.322 6.323h3.162v3.161h-3.162v-3.16zm0-6.323h3.162v3.162h-3.162v-3.162zm-12.644 0h3.16v3.162h-3.16v-3.162zM36.355 50.58h3.161v3.162h-3.161V50.58zm-6.323 0h3.162v3.162h-3.162V50.58zm0 6.323h3.162v3.162h-3.162v-3.162zm6.323 0h3.161v3.162h-3.161v-3.162zm-6.323 6.323h3.162v3.161h-3.162v-3.161zm6.323 0h3.161v3.161h-3.161v-3.161zm31.613-6.323h3.161v3.162h-3.161v-3.162zm-6.323 0h3.161v3.162h-3.161v-3.162zm0 6.323h3.161v3.161h-3.161v-3.161zm6.323 0h3.161v3.161h-3.161v-3.161z" fill="#11345C"/></svg>