<svg width="340" height="76" fill="none" xmlns="http://www.w3.org/2000/svg"><g filter="url(#filter0_ddd_1579_5)"><path d="M8 15C8 8.925 12.925 4 19 4h302c6.075 0 11 4.925 11 11v26.987c0 6.075-4.925 11-11 11H23.42a11 11 0 00-7.854 3.298L8 64V15z" fill="#11345C"/></g><path d="M43.808 23.912V35h-1.552v-9.76h-5.328V35h-1.552V23.912h8.432zm10.004 6.928c0 .661-.096 1.259-.288 1.792a4.029 4.029 0 01-.816 1.376 3.563 3.563 0 01-1.233.896 3.99 3.99 0 01-1.568.304 3.99 3.99 0 01-1.567-.304 3.728 3.728 0 01-1.248-.896 4.173 4.173 0 01-.8-1.376 5.263 5.263 0 01-.288-1.792c0-.65.096-1.243.288-1.776a4.143 4.143 0 01.8-1.392 3.544 3.544 0 011.248-.88 3.818 3.818 0 011.567-.32c.566 0 1.089.107 1.569.32.48.203.89.496 1.232.88.352.384.623.848.816 1.392.191.533.288 1.125.288 1.776zm-1.552 0c0-.939-.214-1.68-.64-2.224-.416-.555-.987-.832-1.712-.832-.726 0-1.302.277-1.729.832-.416.544-.623 1.285-.623 2.224 0 .939.208 1.685.623 2.24.427.544 1.003.816 1.728.816.726 0 1.297-.272 1.713-.816.426-.555.64-1.301.64-2.24zm2.621 2.944h.896c.352-.512.63-1.04.832-1.584a9.165 9.165 0 00.48-1.68c.107-.587.176-1.195.208-1.824.032-.64.053-1.312.064-2.016h5.456v7.104h1.12v3.536h-1.408V35h-6.24v2.32h-1.408v-3.536zm6.448 0v-5.856h-2.608c-.01.501-.037 1.008-.08 1.52a14.564 14.564 0 01-.208 1.504c-.096.49-.235.976-.416 1.456a8.1 8.1 0 01-.656 1.376h3.968zm3.505 0h.896c.352-.512.63-1.04.832-1.584a9.149 9.149 0 00.48-1.68c.107-.587.176-1.195.208-1.824.032-.64.053-1.312.064-2.016h5.456v7.104h1.12v3.536h-1.408V35h-6.24v2.32h-1.408v-3.536zm6.448 0v-5.856h-2.608c-.01.501-.037 1.008-.08 1.52a14.537 14.537 0 01-.208 1.504c-.096.49-.234.976-.416 1.456-.17.47-.39.928-.656 1.376h3.968zm3.753-2.928c0-.736.106-1.376.32-1.92.213-.555.496-1.013.848-1.376a3.442 3.442 0 011.216-.816 3.799 3.799 0 011.408-.272c1.12 0 1.978.352 2.576 1.056.597.693.896 1.755.896 3.184v.256c0 .096-.006.187-.016.272h-5.696c.064.864.314 1.52.752 1.968.437.448 1.12.672 2.048.672.522 0 .96-.043 1.312-.128.362-.096.634-.187.816-.272l.208 1.248c-.182.096-.502.197-.96.304a6.66 6.66 0 01-1.536.16c-.726 0-1.355-.107-1.888-.32a3.6 3.6 0 01-1.296-.912 3.79 3.79 0 01-.768-1.36 6.05 6.05 0 01-.24-1.744zm5.712-.816c.01-.672-.16-1.221-.512-1.648-.342-.437-.816-.656-1.424-.656-.342 0-.646.07-.912.208a2.06 2.06 0 00-.656.512 2.523 2.523 0 00-.432.736c-.096.277-.16.56-.192.848h4.128zm9.465.816c0-.97-.24-1.717-.72-2.24-.48-.523-1.12-.784-1.92-.784-.448 0-.8.016-1.056.048a4.35 4.35 0 00-.592.112v5.248c.182.15.443.293.784.432.342.139.715.208 1.12.208.427 0 .79-.075 1.088-.224.31-.16.56-.373.752-.64.192-.277.33-.597.416-.96.086-.373.128-.773.128-1.2zm1.552 0c0 .63-.085 1.21-.256 1.744-.16.533-.4.992-.72 1.376a3.29 3.29 0 01-1.184.896c-.458.213-.986.32-1.584.32-.48 0-.906-.064-1.28-.192-.362-.128-.634-.25-.816-.368v3.328h-1.488V26.936c.352-.085.79-.176 1.312-.272a9.45 9.45 0 011.84-.16c.64 0 1.216.101 1.728.304.512.203.95.49 1.312.864.363.373.64.832.832 1.376.203.533.304 1.136.304 1.808zm11.991-4.176c-.214.267-.454.56-.72.88-.267.31-.544.635-.832.976-.288.33-.582.661-.88.992-.288.33-.566.645-.832.944.32.31.65.645.992 1.008.341.363.672.741.992 1.136.33.384.645.784.944 1.2.298.405.56.8.784 1.184h-1.664c-.224-.352-.486-.72-.784-1.104a15.733 15.733 0 00-.912-1.136c-.31-.363-.624-.699-.944-1.008a7.78 7.78 0 00-.864-.784V35H97.61v-4.032c-.267.203-.56.464-.88.784-.31.31-.624.645-.944 1.008-.31.363-.614.741-.912 1.136A17.58 17.58 0 0094.107 35h-1.648c.224-.384.48-.779.768-1.184a25.165 25.165 0 011.936-2.32c.341-.363.672-.699.992-1.008-.267-.299-.55-.613-.848-.944l-.864-.992a122.49 122.49 0 00-.832-.976 75.95 75.95 0 01-.736-.896h1.648c.384.48.826 1.013 1.328 1.6a232.03 232.03 0 001.76 2.032V26.68h1.424v3.632a244.93 244.93 0 001.76-2.032 66.23 66.23 0 001.328-1.6h1.632zm4.987 3.792a10.1 10.1 0 011.072.896c.384.352.757.736 1.12 1.152.373.416.72.843 1.04 1.28.32.427.592.827.816 1.2h-1.76c-.235-.363-.512-.73-.832-1.104a16.033 16.033 0 00-.976-1.104 14.62 14.62 0 00-1.04-.976 10.2 10.2 0 00-.992-.752V35h-1.488v-8.32h1.488v3.568c.256-.245.549-.528.88-.848l.992-.992c.341-.341.656-.661.944-.96.288-.31.523-.565.704-.768h1.728c-.235.256-.512.55-.832.88-.309.32-.635.65-.976.992l-.992 1.024-.896.896zm8.37 3.456c.352 0 .661-.005.928-.016.277-.021.506-.053.688-.096v-2.48c-.107-.053-.283-.096-.528-.128a4.933 4.933 0 00-.864-.064c-.224 0-.464.016-.72.048a2.14 2.14 0 00-.688.208 1.373 1.373 0 00-.512.416c-.139.17-.208.4-.208.688 0 .533.17.907.512 1.12.341.203.805.304 1.392.304zm-.128-7.456c.597 0 1.098.08 1.504.24.416.15.746.368.992.656.256.277.437.613.544 1.008.106.384.16.81.16 1.28v5.2c-.128.021-.31.053-.544.096-.224.032-.48.064-.768.096-.288.032-.603.059-.944.08-.331.032-.662.048-.992.048-.47 0-.902-.048-1.296-.144a2.983 2.983 0 01-1.024-.448 2.152 2.152 0 01-.672-.832c-.16-.341-.24-.752-.24-1.232 0-.459.09-.853.272-1.184.192-.33.448-.597.768-.8.32-.203.693-.352 1.12-.448a6.098 6.098 0 011.344-.144c.149 0 .304.01.464.032.16.01.309.032.448.064a7.271 7.271 0 01.608.112v-.416c0-.245-.027-.485-.08-.72a1.614 1.614 0 00-.288-.64 1.364 1.364 0 00-.576-.448c-.235-.117-.544-.176-.928-.176-.491 0-.923.037-1.296.112-.363.064-.635.133-.816.208l-.176-1.232c.192-.085.512-.165.96-.24a7.787 7.787 0 011.456-.128zm12.414 4a10.1 10.1 0 011.072.896c.384.352.757.736 1.12 1.152.373.416.72.843 1.04 1.28.32.427.592.827.816 1.2h-1.76c-.235-.363-.512-.73-.832-1.104a16.033 16.033 0 00-.976-1.104 14.62 14.62 0 00-1.04-.976 10.2 10.2 0 00-.992-.752V35h-1.488v-8.32h1.488v3.568c.256-.245.549-.528.88-.848l.992-.992c.341-.341.656-.661.944-.96.288-.31.523-.565.704-.768h1.728c-.235.256-.512.55-.832.88-.309.32-.635.65-.976.992l-.992 1.024-.896.896zm8.794-2.544c0 .352-.011.73-.032 1.136-.011.395-.038.795-.08 1.2-.043.395-.102.79-.176 1.184a8.2 8.2 0 01-.288 1.088 4.995 4.995 0 01-.448.96 3.31 3.31 0 01-.64.8 3.806 3.806 0 01-.896.576c-.342.15-.742.245-1.2.288l-.208-1.248c.522-.107.933-.304 1.232-.592.309-.288.554-.64.736-1.056.16-.363.277-.773.352-1.232.074-.459.128-.933.16-1.424.032-.501.048-1.003.048-1.504.01-.501.016-.976.016-1.424h5.536V35h-1.488v-7.072h-2.624zm13.658-1.248V35h-1.44v-6.336c-.32.405-.672.88-1.056 1.424-.384.544-.768 1.11-1.152 1.696A65.572 65.572 0 00146.186 35h-1.328v-8.32h1.44v5.984c.277-.459.592-.96.944-1.504a43.708 43.708 0 012.224-3.184c.384-.501.741-.933 1.072-1.296h1.312zm2.091 4.176c0-.736.107-1.376.32-1.92.213-.555.496-1.013.848-1.376a3.44 3.44 0 011.216-.816 3.8 3.8 0 011.408-.272c1.12 0 1.979.352 2.576 1.056.597.693.896 1.755.896 3.184v.256c0 .096-.005.187-.016.272h-5.696c.064.864.315 1.52.752 1.968.437.448 1.12.672 2.048.672.523 0 .96-.043 1.312-.128a5.09 5.09 0 00.816-.272l.208 1.248c-.181.096-.501.197-.96.304a6.66 6.66 0 01-1.536.16c-.725 0-1.355-.107-1.888-.32a3.595 3.595 0 01-1.296-.912 3.8 3.8 0 01-.768-1.36 6.047 6.047 0 01-.24-1.744zm5.712-.816c.011-.672-.16-1.221-.512-1.648-.341-.437-.816-.656-1.424-.656-.341 0-.645.07-.912.208a2.057 2.057 0 00-.656.512 2.54 2.54 0 00-.432.736c-.096.277-.16.56-.192.848h4.128zM170.159 35h-1.488v-3.68h-3.84V35h-1.488v-8.32h1.488v3.392h3.84V26.68h1.488V35zm8.431-8.32v1.248h-2.704V35h-1.488v-7.072h-2.704V26.68h6.896zm8.878 4.16c0 .661-.096 1.259-.288 1.792a4.029 4.029 0 01-.816 1.376 3.57 3.57 0 01-1.232.896 3.99 3.99 0 01-1.568.304 3.987 3.987 0 01-1.568-.304 3.728 3.728 0 01-1.248-.896 4.16 4.16 0 01-.8-1.376 5.263 5.263 0 01-.288-1.792c0-.65.096-1.243.288-1.776a4.132 4.132 0 01.8-1.392 3.544 3.544 0 011.248-.88 3.815 3.815 0 011.568-.32c.565 0 1.088.107 1.568.32.48.203.89.496 1.232.88.352.384.624.848.816 1.392a5.21 5.21 0 01.288 1.776zm-1.552 0c0-.939-.214-1.68-.64-2.224-.416-.555-.987-.832-1.712-.832-.726 0-1.302.277-1.728.832-.416.544-.624 1.285-.624 2.224 0 .939.208 1.685.624 2.24.426.544 1.002.816 1.728.816.725 0 1.296-.272 1.712-.816.426-.555.64-1.301.64-2.24zm5.101 3.04c.064.01.155.021.272.032l.4.032c.15 0 .304.005.464.016h.48c.31 0 .603-.021.88-.064.288-.043.534-.117.736-.224.214-.107.379-.245.496-.416.128-.181.192-.41.192-.688 0-.267-.058-.485-.176-.656a1.16 1.16 0 00-.448-.432 2.086 2.086 0 00-.688-.224 5.062 5.062 0 00-.832-.064h-1.776v2.688zm1.584-3.792c.288 0 .55-.016.784-.048a1.94 1.94 0 00.624-.208c.182-.096.32-.224.416-.384.107-.16.16-.363.16-.608 0-.256-.064-.459-.192-.608a1.16 1.16 0 00-.512-.336 2.27 2.27 0 00-.704-.16 6.312 6.312 0 00-.784-.048c-.245 0-.496.005-.752.016-.245.01-.453.021-.624.032v2.352h1.584zm-.032 5.056c-.629 0-1.21-.032-1.744-.096a9.82 9.82 0 01-1.264-.192V26.76a9.82 9.82 0 011.264-.192 14.702 14.702 0 011.744-.096c.438 0 .864.037 1.28.112a3.48 3.48 0 011.104.384c.32.17.576.41.768.72.203.299.304.672.304 1.12 0 .405-.101.752-.304 1.04a2.018 2.018 0 01-.816.672c.459.16.822.4 1.088.72.278.31.416.747.416 1.312 0 .501-.101.917-.304 1.248-.192.33-.464.597-.816.8a3.404 3.404 0 01-1.216.416 8.43 8.43 0 01-1.504.128zm15.653-8.4c0 .384-.08.757-.24 1.12a5.35 5.35 0 01-.608 1.056c-.256.341-.544.683-.864 1.024-.32.33-.64.656-.96.976l-.64.64c-.235.245-.459.501-.672.768a7.402 7.402 0 00-.544.768c-.139.245-.208.459-.208.64h5.104V35h-6.72a1.13 1.13 0 01-.016-.192v-.176c0-.501.08-.965.24-1.392.171-.437.389-.848.656-1.232s.565-.747.896-1.088c.331-.341.656-.672.976-.992.267-.256.517-.507.752-.752.245-.256.459-.507.64-.752.192-.256.341-.517.448-.784.117-.267.176-.55.176-.848 0-.32-.053-.592-.16-.816a1.53 1.53 0 00-.4-.56 1.514 1.514 0 00-.608-.32 2.262 2.262 0 00-.72-.112 2.68 2.68 0 00-.848.128 3.725 3.725 0 00-.688.304 2.396 2.396 0 00-.512.352l-.32.272-.736-1.056c.096-.107.24-.235.432-.384.192-.16.421-.31.688-.448.267-.139.565-.256.896-.352a3.832 3.832 0 011.072-.144c1.163 0 2.032.272 2.608.816.587.533.88 1.29.88 2.272zm2.199 4.416c.203-.47.48-1.013.832-1.632.352-.63.747-1.275 1.184-1.936.448-.661.923-1.312 1.424-1.952a20.948 20.948 0 011.536-1.728h1.424v7.04h1.312v1.216h-1.312V35h-1.44v-2.832h-4.96V31.16zm4.96-5.488c-.32.341-.645.725-.976 1.152-.32.416-.634.853-.944 1.312-.309.459-.602.928-.88 1.408-.266.48-.506.95-.72 1.408h3.52v-5.28zm4.568 12.288h-1.521l5.425-15.488h1.488l-5.392 15.488zm7.612-2.96c.064-.853.213-1.75.448-2.688.245-.95.544-1.867.896-2.752.352-.896.736-1.723 1.152-2.48.427-.768.843-1.392 1.248-1.872h-5.392v-1.296h7.056v1.232c-.352.405-.741.965-1.168 1.68a19.774 19.774 0 00-1.216 2.384 22.338 22.338 0 00-.976 2.816 15.19 15.19 0 00-.496 2.976h-1.552zm13.743-1.088c.949 0 1.626-.187 2.032-.56.416-.373.624-.875.624-1.504 0-.405-.086-.747-.256-1.024a1.89 1.89 0 00-.672-.656 2.727 2.727 0 00-.976-.352 5.54 5.54 0 00-1.12-.112h-.384v-1.216h.528c.266 0 .538-.027.816-.08a2.38 2.38 0 00.784-.288c.234-.139.426-.325.576-.56.149-.245.224-.55.224-.912a1.71 1.71 0 00-.16-.768 1.504 1.504 0 00-.432-.528 1.467 1.467 0 00-.608-.288 2.61 2.61 0 00-.72-.096c-.512 0-.95.075-1.312.224-.352.15-.651.304-.896.464l-.576-1.136c.128-.085.288-.176.48-.272.202-.107.426-.203.672-.288.245-.085.506-.155.784-.208.288-.064.586-.096.896-.096.586 0 1.093.075 1.52.224a2.71 2.71 0 011.056.608c.277.256.485.565.624.928.138.352.208.736.208 1.152 0 .576-.166 1.072-.496 1.488a3.29 3.29 0 01-1.2.928c.288.085.565.208.832.368.266.16.496.363.688.608a2.9 2.9 0 01.48.848c.128.32.192.677.192 1.072 0 .48-.086.928-.256 1.344-.16.405-.416.757-.768 1.056-.342.299-.774.533-1.296.704-.523.17-1.142.256-1.856.256-.278 0-.566-.021-.864-.064a9.223 9.223 0 01-1.488-.352 3.46 3.46 0 01-.416-.16l.288-1.296c.181.085.48.197.896.336.426.139.944.208 1.552.208zm6.423-3.36c0-1.077.149-2.027.448-2.848.298-.832.72-1.53 1.264-2.096a5.362 5.362 0 012-1.28c.789-.299 1.674-.453 2.656-.464l.112 1.248c-.63.01-1.206.08-1.728.208-.512.128-.971.33-1.376.608-.406.277-.747.64-1.024 1.088-.278.437-.486.981-.624 1.632.277-.128.586-.235.928-.32a4.6 4.6 0 011.088-.128c.629 0 1.162.096 1.6.288.437.192.794.448 1.072.768.277.31.474.672.592 1.088.128.405.192.832.192 1.28 0 .405-.07.821-.208 1.248a3.581 3.581 0 01-.64 1.168c-.278.352-.635.64-1.072.864-.438.224-.955.336-1.552.336-1.216 0-2.144-.416-2.784-1.248-.63-.832-.944-1.979-.944-3.44zm3.584-1.136c-.374 0-.72.037-1.04.112a4.74 4.74 0 00-.96.304c-.011.117-.022.24-.032.368v.352c0 .47.032.912.096 1.328.064.416.176.784.336 1.104.17.31.394.56.672.752.277.181.629.272 1.056.272.352 0 .65-.075.896-.224.245-.15.448-.341.608-.576.16-.235.272-.485.336-.752.074-.277.112-.544.112-.8 0-.725-.176-1.28-.528-1.664-.342-.384-.859-.576-1.552-.576zm7.623-1.232c1.611.064 2.789.416 3.536 1.056.757.64 1.136 1.51 1.136 2.608 0 .49-.085.944-.256 1.36-.16.416-.411.773-.752 1.072-.331.299-.752.533-1.264.704-.512.17-1.12.256-1.824.256a5.78 5.78 0 01-.848-.064 7.564 7.564 0 01-.8-.16 10.43 10.43 0 01-.656-.192 3.46 3.46 0 01-.416-.16l.288-1.296c.181.085.475.197.88.336.416.139.923.208 1.52.208.48 0 .88-.053 1.2-.16.331-.107.597-.25.8-.432a1.53 1.53 0 00.432-.624c.096-.245.144-.501.144-.768 0-.405-.069-.763-.208-1.072-.139-.32-.384-.587-.736-.8-.352-.213-.821-.373-1.408-.48-.587-.117-1.328-.176-2.224-.176.064-.523.112-1.013.144-1.472a66.002 66.002 0 00.192-2.64c.021-.437.043-.896.064-1.376h5.344v1.264h-4.048l-.048.656c-.021.267-.043.55-.064.848l-.064.848c-.021.277-.043.496-.064.656zm9.806 5.6h.896c.352-.512.63-1.04.832-1.584a9.056 9.056 0 00.48-1.68c.107-.587.176-1.195.208-1.824.032-.64.054-1.312.064-2.016h5.456v7.104h1.12v3.536h-1.408V35h-6.24v2.32h-1.408v-3.536zm6.448 0v-5.856h-2.608c-.01.501-.037 1.008-.08 1.52a14.375 14.375 0 01-.208 1.504c-.096.49-.234.976-.416 1.456a8 8 0 01-.656 1.376h3.968zM286.221 35h-1.488v-3.68h-3.84V35h-1.488v-8.32h1.488v3.392h3.84V26.68h1.488V35zm2.095-4.144c0-.736.107-1.376.32-1.92.213-.555.496-1.013.848-1.376a3.44 3.44 0 011.216-.816 3.8 3.8 0 011.408-.272c1.12 0 1.979.352 2.576 1.056.597.693.896 1.755.896 3.184v.256c0 .096-.005.187-.016.272h-5.696c.064.864.315 1.52.752 1.968.437.448 1.12.672 2.048.672.523 0 .96-.043 1.312-.128a5.09 5.09 0 00.816-.272l.208 1.248c-.181.096-.501.197-.96.304a6.66 6.66 0 01-1.536.16c-.725 0-1.355-.107-1.888-.32a3.595 3.595 0 01-1.296-.912 3.8 3.8 0 01-.768-1.36 6.047 6.047 0 01-.24-1.744zm5.712-.816c.011-.672-.16-1.221-.512-1.648-.341-.437-.816-.656-1.424-.656-.341 0-.645.07-.912.208a2.057 2.057 0 00-.656.512 2.54 2.54 0 00-.432.736c-.096.277-.16.56-.192.848h4.128zm10.682-3.36V35h-1.44v-6.336c-.32.405-.672.88-1.056 1.424-.384.544-.768 1.11-1.152 1.696A65.572 65.572 0 00299.046 35h-1.328v-8.32h1.44v5.984c.277-.459.592-.96.944-1.504a42.04 42.04 0 011.088-1.632c.384-.544.762-1.061 1.136-1.552.384-.501.741-.933 1.072-1.296h1.312zm-3.488-1.344c-.672 0-1.222-.17-1.648-.512-.416-.341-.667-.816-.752-1.424l1.136-.304c.085.341.229.619.432.832.202.213.48.32.832.32s.629-.107.832-.32a1.83 1.83 0 00.432-.832l1.12.304c-.086.608-.336 1.083-.752 1.424-.416.341-.96.512-1.632.512z" fill="#fff"/><defs><filter id="filter0_ddd_1579_5" x="0" y="0" width="340" height="76" filterUnits="userSpaceOnUse" color-interpolation-filters="sRGB"><feFlood flood-opacity="0" result="BackgroundImageFix"/><feColorMatrix in="SourceAlpha" values="0 0 0 0 0 0 0 0 0 0 0 0 0 0 0 0 0 0 127 0" result="hardAlpha"/><feOffset/><feGaussianBlur stdDeviation=".5"/><feColorMatrix values="0 0 0 0 0.25098 0 0 0 0 0.32549 0 0 0 0 0.980392 0 0 0 0.01 0"/><feBlend in2="BackgroundImageFix" result="effect1_dropShadow_1579_5"/><feColorMatrix in="SourceAlpha" values="0 0 0 0 0 0 0 0 0 0 0 0 0 0 0 0 0 0 127 0" result="hardAlpha"/><feOffset/><feGaussianBlur stdDeviation="1"/><feColorMatrix values="0 0 0 0 0.25098 0 0 0 0 0.32549 0 0 0 0 0.980392 0 0 0 0.03 0"/><feBlend in2="effect1_dropShadow_1579_5" result="effect2_dropShadow_1579_5"/><feColorMatrix in="SourceAlpha" values="0 0 0 0 0 0 0 0 0 0 0 0 0 0 0 0 0 0 127 0" result="hardAlpha"/><feOffset dy="4"/><feGaussianBlur stdDeviation="4"/><feColorMatrix values="0 0 0 0 0.25098 0 0 0 0 0.32549 0 0 0 0 0.980392 0 0 0 0.02 0"/><feBlend in2="effect2_dropShadow_1579_5" result="effect3_dropShadow_1579_5"/><feBlend in="SourceGraphic" in2="effect3_dropShadow_1579_5" result="shape"/></filter></defs></svg>