<svg width="20" height="19" fill="none" xmlns="http://www.w3.org/2000/svg"><path d="M18.552.997a2.23 2.23 0 00-.7.167h-.002c-.214.085-1.23.513-2.775 1.16L9.538 4.657 1.66 7.976l.047-.018s-.27.088-.55.281c-.175.11-.324.255-.44.425a1.246 1.246 0 00-.208.833c.067.541.418.866.67 1.045.255.182.498.267.498.267h.006l3.663 1.233c.164.527 1.116 3.656 1.344 4.377.135.43.267.7.431.905.08.105.172.193.284.264a.87.87 0 00.185.08l-.038-.01c.011.003.02.012.029.015.03.009.05.012.088.018.58.175 1.046-.185 1.046-.185l.026-.021 2.162-1.969 3.624 2.78.083.036c.755.331 1.52.147 1.924-.179.408-.327.566-.747.566-.747l.026-.067 2.8-14.347c.08-.354.1-.685.013-1.007a1.356 1.356 0 00-.586-.785 1.404 1.404 0 00-.8-.203zm-.075 1.538c-.003.047.006.042-.015.132v.009l-2.774 14.197c-.013.02-.033.064-.088.109-.059.046-.105.076-.349-.021l-4.432-3.398-2.678 2.44.562-3.592 7.242-6.75c.299-.278.2-.336.2-.336.02-.341-.451-.1-.451-.1L6.56 10.882l-.003-.015L2.18 9.393V9.39l-.01-.002a.203.203 0 00.022-.009l.024-.012.023-.008 7.881-3.32c1.989-.837 3.993-1.681 5.534-2.332 1.542-.647 2.68-1.122 2.745-1.148.062-.024.033-.024.077-.024z" fill="#11345C"/></svg>