<svg width="366" height="76" fill="none" xmlns="http://www.w3.org/2000/svg"><g filter="url(#filter0_ddd_1579_6)"><path d="M8 15C8 8.925 12.925 4 19 4h328c6.075 0 11 4.925 11 11v26.987c0 6.075-4.925 11-11 11H24.038a11 11 0 00-7.55 3L8 64V15z" fill="#11345C"/></g><path d="M41.928 24.24v2.816h1.376c.779 0 1.472.064 2.08.192.619.128 1.141.336 1.568.624.427.277.752.64.976 1.088.224.437.336.976.336 1.616 0 1.173-.427 2.059-1.28 2.656-.853.587-2.059.88-3.616.88a18.458 18.458 0 01-2.288-.144 5.964 5.964 0 01-.704-.128V22.912h6.848v1.328h-5.296zm1.568 8.512c.416 0 .81-.032 1.184-.096.384-.064.72-.176 1.008-.336.288-.17.517-.395.688-.672.17-.277.256-.63.256-1.056 0-.448-.08-.816-.24-1.104a1.695 1.695 0 00-.656-.688c-.288-.17-.645-.288-1.072-.352a8.117 8.117 0 00-1.424-.112h-1.312v4.368c.117.01.256.021.416.032.139.01.304.016.496.016h.656zm6.226-2.896c0-.736.107-1.376.32-1.92.214-.555.496-1.013.848-1.376a3.442 3.442 0 011.216-.816 3.799 3.799 0 011.408-.272c1.12 0 1.979.352 2.576 1.056.598.693.896 1.755.896 3.184v.256c0 .096-.005.187-.016.272h-5.696c.064.864.315 1.52.752 1.968.438.448 1.12.672 2.048.672.523 0 .96-.043 1.312-.128a5.12 5.12 0 00.816-.272l.208 1.248c-.181.096-.501.197-.96.304a6.66 6.66 0 01-1.536.16c-.725 0-1.354-.107-1.888-.32a3.6 3.6 0 01-1.296-.912 3.79 3.79 0 01-.768-1.36 6.05 6.05 0 01-.24-1.744zm5.712-.816c.01-.672-.16-1.221-.512-1.648-.341-.437-.816-.656-1.424-.656-.341 0-.645.07-.912.208a2.06 2.06 0 00-.656.512 2.523 2.523 0 00-.432.736c-.096.277-.16.56-.192.848h4.128zm7.306 5.152c-.672 0-1.264-.107-1.776-.32a3.65 3.65 0 01-1.28-.896 3.788 3.788 0 01-.768-1.36 5.75 5.75 0 01-.256-1.76c0-.64.09-1.227.272-1.76.192-.533.458-.992.8-1.376a3.438 3.438 0 011.248-.912 4.033 4.033 0 011.664-.336c.373 0 .746.032 1.12.096.373.064.73.165 1.072.304l-.336 1.264a3.559 3.559 0 00-.784-.256 4.273 4.273 0 00-.928-.096c-.832 0-1.472.261-1.92.784-.438.523-.656 1.285-.656 2.288 0 .448.048.859.144 1.232.106.373.266.693.48.96.224.267.506.475.848.624.341.139.757.208 1.248.208.394 0 .752-.037 1.072-.112.32-.075.57-.155.752-.24l.208 1.248a1.78 1.78 0 01-.368.16 5.38 5.38 0 01-.544.112 5.68 5.68 0 01-.656.096 4.637 4.637 0 01-.656.048zM73.25 34h-1.49v-7.072h-3.71V34h-1.488v-8.32h6.688V34zm5.457-7.072c0 .352-.01.73-.032 1.136a15.142 15.142 0 01-.256 2.384 8.11 8.11 0 01-.288 1.088 4.941 4.941 0 01-.448.96c-.17.299-.384.565-.64.8a3.8 3.8 0 01-.896.576c-.341.15-.741.245-1.2.288l-.208-1.248c.523-.107.934-.304 1.232-.592.31-.288.555-.64.736-1.056a5.03 5.03 0 00.352-1.232c.075-.459.128-.933.16-1.424.032-.501.048-1.003.048-1.504.01-.501.016-.976.016-1.424h5.536V34h-1.488v-7.072h-2.624zm9.483 6c.352 0 .661-.005.928-.016a4.63 4.63 0 00.688-.096v-2.48c-.107-.053-.283-.096-.528-.128a4.929 4.929 0 00-.864-.064c-.224 0-.464.016-.72.048a2.146 2.146 0 00-.688.208 1.38 1.38 0 00-.512.416c-.139.17-.208.4-.208.688 0 .533.17.907.512 1.12.341.203.805.304 1.392.304zm-.128-7.456c.597 0 1.098.08 1.504.24.416.15.746.368.992.656.256.277.437.613.544 1.008.106.384.16.81.16 1.28v5.2c-.128.021-.31.053-.544.096-.224.032-.48.064-.768.096a19.7 19.7 0 01-.944.08c-.33.032-.662.048-.992.048a5.48 5.48 0 01-1.296-.144 2.986 2.986 0 01-1.024-.448 2.152 2.152 0 01-.672-.832c-.16-.341-.24-.752-.24-1.232 0-.459.09-.853.272-1.184.192-.33.448-.597.768-.8.32-.203.693-.352 1.12-.448a6.106 6.106 0 011.344-.144c.15 0 .304.01.464.032.16.01.31.032.448.064a7.167 7.167 0 01.608.112v-.416a3.24 3.24 0 00-.08-.72 1.598 1.598 0 00-.288-.64 1.36 1.36 0 00-.576-.448c-.235-.117-.544-.176-.928-.176-.49 0-.923.037-1.296.112-.363.064-.635.133-.816.208l-.176-1.232c.192-.085.512-.165.96-.24a7.79 7.79 0 011.456-.128zm11.543.208v1.248h-2.704V34h-1.488v-7.072H92.71V25.68h6.896zm8.35 8.32h-1.488v-3.68h-3.84V34h-1.488v-8.32h1.488v3.392h3.84V25.68h1.488V34zm9.903-4.16c0 .661-.096 1.259-.288 1.792a4.029 4.029 0 01-.816 1.376 3.56 3.56 0 01-1.232.896 3.987 3.987 0 01-1.568.304 3.99 3.99 0 01-1.568-.304 3.728 3.728 0 01-1.248-.896 4.178 4.178 0 01-.8-1.376 5.263 5.263 0 01-.288-1.792c0-.65.096-1.243.288-1.776a4.148 4.148 0 01.8-1.392 3.544 3.544 0 011.248-.88 3.819 3.819 0 011.568-.32 3.82 3.82 0 011.568.32c.48.203.891.496 1.232.88.352.384.624.848.816 1.392a5.21 5.21 0 01.288 1.776zm-1.552 0c0-.939-.213-1.68-.64-2.224-.416-.555-.986-.832-1.712-.832-.725 0-1.301.277-1.728.832-.416.544-.624 1.285-.624 2.224 0 .939.208 1.685.624 2.24.427.544 1.003.816 1.728.816.726 0 1.296-.272 1.712-.816.427-.555.64-1.301.64-2.24zm3.182.016c0-.736.107-1.376.32-1.92.213-.555.496-1.013.848-1.376a3.44 3.44 0 011.216-.816 3.8 3.8 0 011.408-.272c1.12 0 1.979.352 2.576 1.056.597.693.896 1.755.896 3.184v.256c0 .096-.005.187-.016.272h-5.696c.064.864.315 1.52.752 1.968.437.448 1.12.672 2.048.672.523 0 .96-.043 1.312-.128a5.09 5.09 0 00.816-.272l.208 1.248c-.181.096-.501.197-.96.304a6.66 6.66 0 01-1.536.16c-.725 0-1.355-.107-1.888-.32a3.595 3.595 0 01-1.296-.912 3.8 3.8 0 01-.768-1.36 6.047 6.047 0 01-.24-1.744zm5.712-.816c.011-.672-.16-1.221-.512-1.648-.341-.437-.816-.656-1.424-.656-.341 0-.645.07-.912.208a2.057 2.057 0 00-.656.512 2.54 2.54 0 00-.432.736c-.096.277-.16.56-.192.848h4.128zm8.849 3.84c.064.01.154.021.272.032l.4.032c.149 0 .304.005.464.016h.48c.309 0 .602-.021.88-.064.288-.043.533-.117.736-.224.213-.107.378-.245.496-.416.128-.181.192-.41.192-.688 0-.267-.059-.485-.176-.656a1.167 1.167 0 00-.448-.432 2.093 2.093 0 00-.688-.224 5.07 5.07 0 00-.832-.064h-1.776v2.688zm1.584-3.792c.288 0 .549-.016.784-.048.245-.043.453-.112.624-.208a1.04 1.04 0 00.416-.384c.106-.16.16-.363.16-.608 0-.256-.064-.459-.192-.608a1.166 1.166 0 00-.512-.336 2.284 2.284 0 00-.704-.16 6.328 6.328 0 00-.785-.048c-.245 0-.495.005-.751.016-.246.01-.454.021-.624.032v2.352h1.584zm-.032 5.056c-.63 0-1.211-.032-1.744-.096a9.763 9.763 0 01-1.264-.192V25.76c.309-.075.73-.139 1.264-.192a14.677 14.677 0 011.744-.096c.437 0 .864.037 1.28.112a3.48 3.48 0 011.104.384c.32.17.576.41.768.72.202.299.304.672.304 1.12 0 .405-.102.752-.304 1.04a2.031 2.031 0 01-.816.672c.458.16.821.4 1.088.72.277.31.416.747.416 1.312 0 .501-.102.917-.304 1.248-.192.33-.464.597-.816.8a3.417 3.417 0 01-1.216.416c-.47.085-.971.128-1.504.128zM148.174 34h-1.488v-3.68h-3.84V34h-1.488v-8.32h1.488v3.392h3.84V25.68h1.488V34zm2.095-4.144c0-.736.107-1.376.32-1.92.213-.555.496-1.013.848-1.376a3.44 3.44 0 011.216-.816 3.8 3.8 0 011.408-.272c1.12 0 1.979.352 2.576 1.056.597.693.896 1.755.896 3.184v.256c0 .096-.005.187-.016.272h-5.696c.064.864.315 1.52.752 1.968.437.448 1.12.672 2.048.672.523 0 .96-.043 1.312-.128a5.09 5.09 0 00.816-.272l.208 1.248c-.181.096-.501.197-.96.304a6.66 6.66 0 01-1.536.16c-.725 0-1.355-.107-1.888-.32a3.595 3.595 0 01-1.296-.912 3.8 3.8 0 01-.768-1.36 6.047 6.047 0 01-.24-1.744zm5.712-.816c.011-.672-.16-1.221-.512-1.648-.341-.437-.816-.656-1.424-.656-.341 0-.645.07-.912.208a2.057 2.057 0 00-.656.512 2.54 2.54 0 00-.432.736c-.096.277-.16.56-.192.848h4.128zm2.666 3.744h.896c.352-.512.629-1.04.832-1.584a9.212 9.212 0 00.48-1.68 14.35 14.35 0 00.208-1.824c.032-.64.053-1.312.064-2.016h5.456v7.104h1.12v3.536h-1.408V34h-6.24v2.32h-1.408v-3.536zm6.448 0v-5.856h-2.608a25.413 25.413 0 01-.08 1.52 14.646 14.646 0 01-.208 1.504c-.096.49-.235.976-.416 1.456-.171.47-.39.928-.656 1.376h3.968zm9.992-2.928c0-.97-.24-1.717-.72-2.24-.48-.523-1.12-.784-1.92-.784-.448 0-.8.016-1.056.048a4.35 4.35 0 00-.592.112v5.248c.182.15.443.293.784.432.342.139.715.208 1.12.208.427 0 .79-.075 1.088-.224.31-.16.56-.373.752-.64a2.78 2.78 0 00.416-.96c.086-.373.128-.773.128-1.2zm1.552 0c0 .63-.085 1.21-.256 1.744-.16.533-.4.992-.72 1.376-.32.384-.714.683-1.184.896-.458.213-.986.32-1.584.32-.48 0-.906-.064-1.28-.192-.362-.128-.634-.25-.816-.368v3.328h-1.488V25.936c.352-.085.79-.176 1.312-.272a9.458 9.458 0 011.84-.16c.64 0 1.216.101 1.728.304.512.203.95.49 1.312.864.363.373.64.832.832 1.376.203.533.304 1.136.304 1.808zm1.63 0c0-.736.107-1.376.32-1.92.213-.555.496-1.013.848-1.376a3.44 3.44 0 011.216-.816 3.8 3.8 0 011.408-.272c1.12 0 1.979.352 2.576 1.056.597.693.896 1.755.896 3.184v.256c0 .096-.005.187-.016.272h-5.696c.064.864.315 1.52.752 1.968.437.448 1.12.672 2.048.672.523 0 .96-.043 1.312-.128a5.09 5.09 0 00.816-.272l.208 1.248c-.181.096-.501.197-.96.304a6.66 6.66 0 01-1.536.16c-.725 0-1.355-.107-1.888-.32a3.595 3.595 0 01-1.296-.912 3.8 3.8 0 01-.768-1.36 6.047 6.047 0 01-.24-1.744zm5.712-.816c.011-.672-.16-1.221-.512-1.648-.341-.437-.816-.656-1.424-.656-.341 0-.645.07-.912.208a2.057 2.057 0 00-.656.512 2.54 2.54 0 00-.432.736c-.096.277-.16.56-.192.848h4.128zM194.487 34h-1.488v-3.68h-3.84V34h-1.488v-8.32h1.488v3.392h3.84V25.68h1.488V34zm9.551-8.32V34h-1.44v-6.336c-.32.405-.672.88-1.056 1.424-.384.544-.768 1.11-1.152 1.696A65.572 65.572 0 00198.374 34h-1.328v-8.32h1.44v5.984c.277-.459.592-.96.944-1.504a42.04 42.04 0 011.088-1.632c.384-.544.762-1.061 1.136-1.552.384-.501.741-.933 1.072-1.296h1.312zm2.091 4.176c0-.736.106-1.376.32-1.92.213-.555.496-1.013.848-1.376a3.44 3.44 0 011.216-.816 3.797 3.797 0 011.408-.272c1.12 0 1.978.352 2.576 1.056.597.693.895 1.755.895 3.184v.256c0 .096-.005.187-.015.272h-5.696c.064.864.314 1.52.752 1.968.437.448 1.12.672 2.048.672.522 0 .96-.043 1.312-.128a5.16 5.16 0 00.816-.272l.208 1.248c-.182.096-.502.197-.96.304a6.66 6.66 0 01-1.536.16c-.726 0-1.355-.107-1.888-.32a3.595 3.595 0 01-1.296-.912 3.787 3.787 0 01-.769-1.36 6.082 6.082 0 01-.239-1.744zm5.712-.816c.01-.672-.16-1.221-.512-1.648-.342-.437-.816-.656-1.424-.656-.342 0-.646.07-.912.208a2.057 2.057 0 00-.656.512 2.497 2.497 0 00-.432.736c-.096.277-.16.56-.192.848h4.128zm14.736.8c0 .661-.096 1.259-.288 1.792a4.029 4.029 0 01-.816 1.376 3.56 3.56 0 01-1.232.896 3.99 3.99 0 01-1.568.304 3.99 3.99 0 01-1.568-.304 3.728 3.728 0 01-1.248-.896 4.178 4.178 0 01-.8-1.376 5.263 5.263 0 01-.288-1.792c0-.65.096-1.243.288-1.776a4.148 4.148 0 01.8-1.392 3.544 3.544 0 011.248-.88 3.819 3.819 0 011.568-.32c.565 0 1.088.107 1.568.32.48.203.891.496 1.232.88.352.384.624.848.816 1.392a5.21 5.21 0 01.288 1.776zm-1.552 0c0-.939-.213-1.68-.64-2.224-.416-.555-.987-.832-1.712-.832s-1.301.277-1.728.832c-.416.544-.624 1.285-.624 2.224 0 .939.208 1.685.624 2.24.427.544 1.003.816 1.728.816.725 0 1.296-.272 1.712-.816.427-.555.64-1.301.64-2.24zm4.99-3.2c.33-.267.714-.47 1.152-.608.448-.15.874-.224 1.28-.224 1.194 0 2.096.368 2.704 1.104.618.725.928 1.739.928 3.04 0 .555-.075 1.088-.224 1.6-.15.512-.384.965-.704 1.36a3.35 3.35 0 01-1.184.944c-.48.235-1.051.352-1.712.352-.758 0-1.387-.139-1.888-.416a3.22 3.22 0 01-1.2-1.136 4.976 4.976 0 01-.608-1.68 11.2 11.2 0 01-.176-2.032c0-.928.064-1.792.192-2.592.138-.8.384-1.504.736-2.112a4.357 4.357 0 011.456-1.504c.629-.405 1.434-.677 2.416-.816a15.3 15.3 0 01.752-.096c.224-.032.416-.059.576-.08.17-.021.325-.043.464-.064.138-.032.282-.064.432-.096l.16 1.344a1.618 1.618 0 01-.24.048 1320.6 1320.6 0 00-.912.128c-.235.032-.544.07-.928.112-1.056.117-1.867.437-2.432.96-.566.523-.912 1.344-1.04 2.464zm-.096 2.544c0 .501.032.976.096 1.424.074.448.197.843.368 1.184.181.341.421.613.72.816.298.192.682.288 1.152.288.405 0 .752-.075 1.04-.224.288-.16.522-.373.704-.64.181-.267.314-.576.4-.928a5.04 5.04 0 00.128-1.152 4.97 4.97 0 00-.112-1.056 2.388 2.388 0 00-.368-.912 1.965 1.965 0 00-.736-.64c-.299-.16-.678-.24-1.136-.24-.448 0-.88.096-1.296.288-.406.192-.72.427-.944.704a5.708 5.708 0 00-.016.496v.592zm15.611.656c0 .661-.096 1.259-.288 1.792a4.029 4.029 0 01-.816 1.376 3.56 3.56 0 01-1.232.896 3.987 3.987 0 01-1.568.304 3.99 3.99 0 01-1.568-.304 3.728 3.728 0 01-1.248-.896 4.178 4.178 0 01-.8-1.376 5.263 5.263 0 01-.288-1.792c0-.65.096-1.243.288-1.776a4.148 4.148 0 01.8-1.392 3.544 3.544 0 011.248-.88 3.819 3.819 0 011.568-.32 3.82 3.82 0 011.568.32c.48.203.891.496 1.232.88.352.384.624.848.816 1.392a5.21 5.21 0 01.288 1.776zm-1.552 0c0-.939-.213-1.68-.64-2.224-.416-.555-.986-.832-1.712-.832-.725 0-1.301.277-1.728.832-.416.544-.624 1.285-.624 2.224 0 .939.208 1.685.624 2.24.427.544 1.003.816 1.728.816.726 0 1.296-.272 1.712-.816.427-.555.64-1.301.64-2.24zm9.422.016c0-.97-.24-1.717-.72-2.24-.48-.523-1.12-.784-1.92-.784-.448 0-.8.016-1.056.048a4.29 4.29 0 00-.592.112v5.248c.181.15.442.293.784.432.341.139.714.208 1.12.208.426 0 .789-.075 1.088-.224.309-.16.56-.373.752-.64.192-.277.33-.597.416-.96.085-.373.128-.773.128-1.2zm1.552 0c0 .63-.086 1.21-.256 1.744-.16.533-.4.992-.72 1.376a3.29 3.29 0 01-1.184.896c-.459.213-.987.32-1.584.32-.48 0-.907-.064-1.28-.192-.363-.128-.635-.25-.816-.368v3.328h-1.488V25.936c.352-.085.789-.176 1.312-.272a9.443 9.443 0 011.84-.16c.64 0 1.216.101 1.728.304.512.203.949.49 1.312.864.362.373.64.832.832 1.376.202.533.304 1.136.304 1.808zm.899 5.696c.117.053.267.101.448.144.192.053.379.08.56.08.587 0 1.045-.133 1.376-.4.331-.256.629-.677.896-1.264a47.827 47.827 0 01-1.888-4.064 36.69 36.69 0 01-1.44-4.368h1.6c.117.48.256.997.416 1.552.171.555.357 1.125.56 1.712.203.587.421 1.173.656 1.76.235.587.48 1.152.736 1.696a42.97 42.97 0 001.056-3.328c.299-1.099.581-2.23.848-3.392h1.536a64.917 64.917 0 01-1.28 4.528 46.525 46.525 0 01-1.52 4.048c-.213.48-.437.89-.672 1.232-.224.352-.475.64-.752.864-.277.224-.592.39-.944.496-.341.107-.731.16-1.168.16-.117 0-.24-.01-.368-.032a2.408 2.408 0 01-.384-.064 3.127 3.127 0 01-.336-.08 1.774 1.774 0 01-.208-.08l.272-1.2zm7.499-2.768h.896c.352-.512.629-1.04.832-1.584a9.212 9.212 0 00.48-1.68 14.35 14.35 0 00.208-1.824c.032-.64.053-1.312.064-2.016h5.456v7.104h1.12v3.536h-1.408V34h-6.24v2.32h-1.408v-3.536zm6.448 0v-5.856h-2.608a25.413 25.413 0 01-.08 1.52 14.646 14.646 0 01-.208 1.504c-.096.49-.235.976-.416 1.456-.171.47-.39.928-.656 1.376h3.968zm11.56-2.944c0 .661-.096 1.259-.288 1.792a4.029 4.029 0 01-.816 1.376 3.56 3.56 0 01-1.232.896 3.987 3.987 0 01-1.568.304 3.99 3.99 0 01-1.568-.304 3.728 3.728 0 01-1.248-.896 4.178 4.178 0 01-.8-1.376 5.263 5.263 0 01-.288-1.792c0-.65.096-1.243.288-1.776a4.148 4.148 0 01.8-1.392 3.544 3.544 0 011.248-.88 3.819 3.819 0 011.568-.32 3.82 3.82 0 011.568.32c.48.203.891.496 1.232.88.352.384.624.848.816 1.392a5.21 5.21 0 01.288 1.776zm-1.552 0c0-.939-.213-1.68-.64-2.224-.416-.555-.986-.832-1.712-.832-.725 0-1.301.277-1.728.832-.416.544-.624 1.285-.624 2.224 0 .939.208 1.685.624 2.24.427.544 1.003.816 1.728.816.726 0 1.296-.272 1.712-.816.427-.555.64-1.301.64-2.24zm5.102 3.04c.064.01.155.021.272.032l.4.032c.149 0 .304.005.464.016h.48c.309 0 .603-.021.88-.064.288-.043.533-.117.736-.224a1.28 1.28 0 00.496-.416c.128-.181.192-.41.192-.688 0-.267-.059-.485-.176-.656a1.167 1.167 0 00-.448-.432 2.086 2.086 0 00-.688-.224 5.062 5.062 0 00-.832-.064h-1.776v2.688zm1.584-3.792c.288 0 .549-.016.784-.048.245-.043.453-.112.624-.208a1.04 1.04 0 00.416-.384c.107-.16.16-.363.16-.608 0-.256-.064-.459-.192-.608a1.166 1.166 0 00-.512-.336 2.277 2.277 0 00-.704-.16 6.312 6.312 0 00-.784-.048c-.245 0-.496.005-.752.016-.245.01-.453.021-.624.032v2.352h1.584zm-.032 5.056a14.69 14.69 0 01-1.744-.096 9.79 9.79 0 01-1.264-.192V25.76a9.79 9.79 0 011.264-.192 14.69 14.69 0 011.744-.096c.437 0 .864.037 1.28.112a3.48 3.48 0 011.104.384c.32.17.576.41.768.72.203.299.304.672.304 1.12 0 .405-.101.752-.304 1.04a2.031 2.031 0 01-.816.672c.459.16.821.4 1.088.72.277.31.416.747.416 1.312 0 .501-.101.917-.304 1.248-.192.33-.464.597-.816.8a3.41 3.41 0 01-1.216.416 8.41 8.41 0 01-1.504.128zm8.574-1.216c.352 0 .661-.005.928-.016.277-.021.506-.053.688-.096v-2.48c-.107-.053-.283-.096-.528-.128a4.933 4.933 0 00-.864-.064c-.224 0-.464.016-.72.048a2.14 2.14 0 00-.688.208 1.373 1.373 0 00-.512.416c-.139.17-.208.4-.208.688 0 .533.17.907.512 1.12.341.203.805.304 1.392.304zm-.128-7.456c.597 0 1.098.08 1.504.24.416.15.746.368.992.656.256.277.437.613.544 1.008.106.384.16.81.16 1.28v5.2c-.128.021-.31.053-.544.096-.224.032-.48.064-.768.096-.288.032-.603.059-.944.08-.331.032-.662.048-.992.048-.47 0-.902-.048-1.296-.144a2.983 2.983 0 01-1.024-.448 2.152 2.152 0 01-.672-.832c-.16-.341-.24-.752-.24-1.232 0-.459.09-.853.272-1.184.192-.33.448-.597.768-.8.32-.203.693-.352 1.12-.448a6.098 6.098 0 011.344-.144c.149 0 .304.01.464.032.16.01.309.032.448.064a7.271 7.271 0 01.608.112v-.416c0-.245-.027-.485-.08-.72a1.614 1.614 0 00-.288-.64 1.364 1.364 0 00-.576-.448c-.235-.117-.544-.176-.928-.176-.491 0-.923.037-1.296.112-.363.064-.635.133-.816.208l-.176-1.232c.192-.085.512-.165.96-.24a7.787 7.787 0 011.456-.128zM307.393 34h-1.488v-3.68h-3.84V34h-1.488v-8.32h1.488v3.392h3.84V25.68h1.488V34zm9.551-8.32V34h-1.44v-6.336c-.32.405-.672.88-1.056 1.424-.384.544-.768 1.11-1.152 1.696A65.572 65.572 0 00311.28 34h-1.328v-8.32h1.44v5.984c.277-.459.592-.96.944-1.504a43.708 43.708 0 012.224-3.184c.384-.501.741-.933 1.072-1.296h1.312zm5.995 5.088h-.464a70.53 70.53 0 01-.432-.032 21.498 21.498 0 00-.992 1.648 46.6 46.6 0 00-.832 1.616h-1.504c.128-.31.277-.624.448-.944.17-.33.341-.65.512-.96a21.785 21.785 0 011.056-1.632 2.637 2.637 0 01-.736-.384 2.14 2.14 0 01-.72-1.136 3.556 3.556 0 01-.064-.672c0-.47.085-.88.256-1.232.181-.352.426-.64.736-.864.309-.235.672-.41 1.088-.528a5.23 5.23 0 011.392-.176c.704 0 1.301.032 1.792.096.49.064.901.139 1.232.224V34h-1.472v-3.232h-1.296zm1.296-3.984a6.645 6.645 0 00-.592-.064 11.818 11.818 0 00-.928-.032c-.608 0-1.099.128-1.472.384-.374.245-.56.64-.56 1.184 0 .533.192.901.576 1.104.384.203.88.304 1.488.304h1.488v-2.88z" fill="#fff"/><defs><filter id="filter0_ddd_1579_6" x="0" y="0" width="366" height="76" filterUnits="userSpaceOnUse" color-interpolation-filters="sRGB"><feFlood flood-opacity="0" result="BackgroundImageFix"/><feColorMatrix in="SourceAlpha" values="0 0 0 0 0 0 0 0 0 0 0 0 0 0 0 0 0 0 127 0" result="hardAlpha"/><feOffset/><feGaussianBlur stdDeviation=".5"/><feColorMatrix values="0 0 0 0 0.25098 0 0 0 0 0.32549 0 0 0 0 0.980392 0 0 0 0.01 0"/><feBlend in2="BackgroundImageFix" result="effect1_dropShadow_1579_6"/><feColorMatrix in="SourceAlpha" values="0 0 0 0 0 0 0 0 0 0 0 0 0 0 0 0 0 0 127 0" result="hardAlpha"/><feOffset/><feGaussianBlur stdDeviation="1"/><feColorMatrix values="0 0 0 0 0.25098 0 0 0 0 0.32549 0 0 0 0 0.980392 0 0 0 0.03 0"/><feBlend in2="effect1_dropShadow_1579_6" result="effect2_dropShadow_1579_6"/><feColorMatrix in="SourceAlpha" values="0 0 0 0 0 0 0 0 0 0 0 0 0 0 0 0 0 0 127 0" result="hardAlpha"/><feOffset dy="4"/><feGaussianBlur stdDeviation="4"/><feColorMatrix values="0 0 0 0 0.25098 0 0 0 0 0.32549 0 0 0 0 0.980392 0 0 0 0.02 0"/><feBlend in2="effect2_dropShadow_1579_6" result="effect3_dropShadow_1579_6"/><feBlend in="SourceGraphic" in2="effect3_dropShadow_1579_6" result="shape"/></filter></defs></svg>