<svg width="84" height="94" fill="none" xmlns="http://www.w3.org/2000/svg"><g clip-path="url(#clip0_1404_495)"><g filter="url(#filter0_ddd_1404_495)"><path d="M13.125 7.344h2.625v2.937h-2.625V7.344z" fill="#11345C"/></g><g filter="url(#filter1_ddd_1404_495)"><path d="M18.375 7.344H21v2.937h-2.625V7.344z" fill="#11345C"/></g><g filter="url(#filter2_ddd_1404_495)"><path d="M76.125 71.969v-5.875c0-1.083-.532-2.02-1.313-2.53V60.22c0-1.083-.531-2.02-1.312-2.53V16.892c0-8.504-6.182-15.422-13.781-15.422-7.6 0-13.782 6.918-13.782 15.422v52.875c0 7.693-5.593 13.953-12.468 13.953S21 77.459 21 69.766V45.123c.78-.51 1.313-1.447 1.313-2.53v-8.812c2.17 0 3.937-1.977 3.937-4.406v-7.344c.724 0 1.313-.658 1.313-1.468v-5.875c0-.811-.588-1.47-1.313-1.47V2.939c0-.811-.588-1.47-1.313-1.47H9.188c-.724 0-1.312.659-1.312 1.47v10.28c-.724 0-1.313.659-1.313 1.47v5.874c0 .811.588 1.47 1.313 1.47v7.343c0 2.43 1.767 4.406 3.938 4.406v8.813c0 1.082.531 2.02 1.312 2.529v24.643c0 12.553 9.126 22.765 20.344 22.765 11.218 0 20.343-10.212 20.343-22.765V16.89c0-3.644 2.65-6.61 5.907-6.61 3.256 0 5.906 2.966 5.906 6.61v40.8c-.78.51-1.313 1.446-1.313 2.529v3.346c-.78.51-1.312 1.446-1.312 2.529v5.875c-.724 0-1.313.658-1.313 1.469v5.874c0 .811.589 1.47 1.313 1.47v10.28c0 .811.588 1.47 1.313 1.47h10.5c.724 0 1.312-.659 1.312-1.47v-10.28c.725 0 1.313-.659 1.313-1.47v-5.874c0-.811-.588-1.47-1.313-1.47zm-3.938-11.75v2.937h-5.25V60.22h5.25zm-57.75-17.625v-2.938h5.25v2.938h-5.25zm-5.25-23.5v-2.938h15.75v2.938H9.188zM10.5 4.406h13.125v8.813H10.5V4.406zm0 24.969v-7.344h13.125v7.344c0 .81-.59 1.469-1.313 1.469h-10.5c-.723 0-1.312-.66-1.312-1.469zm9.188 4.406v2.938h-5.25V33.78h5.25zm40.03-26.437c-4.703 0-8.53 4.283-8.53 9.547v52.875c0 10.933-7.949 19.828-17.72 19.828-9.77 0-17.718-8.895-17.718-19.828V45.53h2.625v24.235c0 9.313 6.771 16.89 15.094 16.89 8.322 0 15.093-7.577 15.093-16.89V16.89c0-6.884 5.005-12.485 11.157-12.485 6.151 0 11.156 5.6 11.156 12.485v40.39H68.25V16.89c0-5.264-3.827-9.547-8.531-9.547zm5.907 58.75H73.5v5.875h-7.875v-5.875zm9.188 11.75h-10.5v-2.938h10.5v2.938zM73.5 89.594h-7.875V80.78H73.5v8.813z" fill="#11345C"/></g><g filter="url(#filter3_ddd_1404_495)"><path d="M68.25 83.719h2.625v2.937H68.25V83.72z" fill="#11345C"/></g><g filter="url(#filter4_ddd_1404_495)"><path d="M13.125 23.5h2.625v5.875h-2.625V23.5z" fill="#11345C"/></g><g filter="url(#filter5_ddd_1404_495)"><path d="M18.375 23.5H21v5.875h-2.625V23.5z" fill="#11345C"/></g></g><defs><filter id="filter0_ddd_1404_495" x="5.125" y="3.344" width="18.625" height="18.938" filterUnits="userSpaceOnUse" color-interpolation-filters="sRGB"><feFlood flood-opacity="0" result="BackgroundImageFix"/><feColorMatrix in="SourceAlpha" values="0 0 0 0 0 0 0 0 0 0 0 0 0 0 0 0 0 0 127 0" result="hardAlpha"/><feOffset/><feGaussianBlur stdDeviation=".5"/><feColorMatrix values="0 0 0 0 0 0 0 0 0 0 0 0 0 0 0 0 0 0 0.04 0"/><feBlend in2="BackgroundImageFix" result="effect1_dropShadow_1404_495"/><feColorMatrix in="SourceAlpha" values="0 0 0 0 0 0 0 0 0 0 0 0 0 0 0 0 0 0 127 0" result="hardAlpha"/><feOffset/><feGaussianBlur stdDeviation="1"/><feColorMatrix values="0 0 0 0 0.25098 0 0 0 0 0.32549 0 0 0 0 0.980392 0 0 0 0.12 0"/><feBlend in2="effect1_dropShadow_1404_495" result="effect2_dropShadow_1404_495"/><feColorMatrix in="SourceAlpha" values="0 0 0 0 0 0 0 0 0 0 0 0 0 0 0 0 0 0 127 0" result="hardAlpha"/><feOffset dy="4"/><feGaussianBlur stdDeviation="4"/><feColorMatrix values="0 0 0 0 0.25098 0 0 0 0 0.32549 0 0 0 0 0.980392 0 0 0 0.18 0"/><feBlend in2="effect2_dropShadow_1404_495" result="effect3_dropShadow_1404_495"/><feBlend in="SourceGraphic" in2="effect3_dropShadow_1404_495" result="shape"/></filter><filter id="filter1_ddd_1404_495" x="10.375" y="3.344" width="18.625" height="18.938" filterUnits="userSpaceOnUse" color-interpolation-filters="sRGB"><feFlood flood-opacity="0" result="BackgroundImageFix"/><feColorMatrix in="SourceAlpha" values="0 0 0 0 0 0 0 0 0 0 0 0 0 0 0 0 0 0 127 0" result="hardAlpha"/><feOffset/><feGaussianBlur stdDeviation=".5"/><feColorMatrix values="0 0 0 0 0 0 0 0 0 0 0 0 0 0 0 0 0 0 0.04 0"/><feBlend in2="BackgroundImageFix" result="effect1_dropShadow_1404_495"/><feColorMatrix in="SourceAlpha" values="0 0 0 0 0 0 0 0 0 0 0 0 0 0 0 0 0 0 127 0" result="hardAlpha"/><feOffset/><feGaussianBlur stdDeviation="1"/><feColorMatrix values="0 0 0 0 0.25098 0 0 0 0 0.32549 0 0 0 0 0.980392 0 0 0 0.12 0"/><feBlend in2="effect1_dropShadow_1404_495" result="effect2_dropShadow_1404_495"/><feColorMatrix in="SourceAlpha" values="0 0 0 0 0 0 0 0 0 0 0 0 0 0 0 0 0 0 127 0" result="hardAlpha"/><feOffset dy="4"/><feGaussianBlur stdDeviation="4"/><feColorMatrix values="0 0 0 0 0.25098 0 0 0 0 0.32549 0 0 0 0 0.980392 0 0 0 0.18 0"/><feBlend in2="effect2_dropShadow_1404_495" result="effect3_dropShadow_1404_495"/><feBlend in="SourceGraphic" in2="effect3_dropShadow_1404_495" result="shape"/></filter><filter id="filter2_ddd_1404_495" x="-1.438" y="-2.531" width="86.875" height="107.062" filterUnits="userSpaceOnUse" color-interpolation-filters="sRGB"><feFlood flood-opacity="0" result="BackgroundImageFix"/><feColorMatrix in="SourceAlpha" values="0 0 0 0 0 0 0 0 0 0 0 0 0 0 0 0 0 0 127 0" result="hardAlpha"/><feOffset/><feGaussianBlur stdDeviation=".5"/><feColorMatrix values="0 0 0 0 0 0 0 0 0 0 0 0 0 0 0 0 0 0 0.04 0"/><feBlend in2="BackgroundImageFix" result="effect1_dropShadow_1404_495"/><feColorMatrix in="SourceAlpha" values="0 0 0 0 0 0 0 0 0 0 0 0 0 0 0 0 0 0 127 0" result="hardAlpha"/><feOffset/><feGaussianBlur stdDeviation="1"/><feColorMatrix values="0 0 0 0 0.25098 0 0 0 0 0.32549 0 0 0 0 0.980392 0 0 0 0.12 0"/><feBlend in2="effect1_dropShadow_1404_495" result="effect2_dropShadow_1404_495"/><feColorMatrix in="SourceAlpha" values="0 0 0 0 0 0 0 0 0 0 0 0 0 0 0 0 0 0 127 0" result="hardAlpha"/><feOffset dy="4"/><feGaussianBlur stdDeviation="4"/><feColorMatrix values="0 0 0 0 0.25098 0 0 0 0 0.32549 0 0 0 0 0.980392 0 0 0 0.18 0"/><feBlend in2="effect2_dropShadow_1404_495" result="effect3_dropShadow_1404_495"/><feBlend in="SourceGraphic" in2="effect3_dropShadow_1404_495" result="shape"/></filter><filter id="filter3_ddd_1404_495" x="60.25" y="79.719" width="18.625" height="18.938" filterUnits="userSpaceOnUse" color-interpolation-filters="sRGB"><feFlood flood-opacity="0" result="BackgroundImageFix"/><feColorMatrix in="SourceAlpha" values="0 0 0 0 0 0 0 0 0 0 0 0 0 0 0 0 0 0 127 0" result="hardAlpha"/><feOffset/><feGaussianBlur stdDeviation=".5"/><feColorMatrix values="0 0 0 0 0 0 0 0 0 0 0 0 0 0 0 0 0 0 0.04 0"/><feBlend in2="BackgroundImageFix" result="effect1_dropShadow_1404_495"/><feColorMatrix in="SourceAlpha" values="0 0 0 0 0 0 0 0 0 0 0 0 0 0 0 0 0 0 127 0" result="hardAlpha"/><feOffset/><feGaussianBlur stdDeviation="1"/><feColorMatrix values="0 0 0 0 0.25098 0 0 0 0 0.32549 0 0 0 0 0.980392 0 0 0 0.12 0"/><feBlend in2="effect1_dropShadow_1404_495" result="effect2_dropShadow_1404_495"/><feColorMatrix in="SourceAlpha" values="0 0 0 0 0 0 0 0 0 0 0 0 0 0 0 0 0 0 127 0" result="hardAlpha"/><feOffset dy="4"/><feGaussianBlur stdDeviation="4"/><feColorMatrix values="0 0 0 0 0.25098 0 0 0 0 0.32549 0 0 0 0 0.980392 0 0 0 0.18 0"/><feBlend in2="effect2_dropShadow_1404_495" result="effect3_dropShadow_1404_495"/><feBlend in="SourceGraphic" in2="effect3_dropShadow_1404_495" result="shape"/></filter><filter id="filter4_ddd_1404_495" x="5.125" y="19.5" width="18.625" height="21.875" filterUnits="userSpaceOnUse" color-interpolation-filters="sRGB"><feFlood flood-opacity="0" result="BackgroundImageFix"/><feColorMatrix in="SourceAlpha" values="0 0 0 0 0 0 0 0 0 0 0 0 0 0 0 0 0 0 127 0" result="hardAlpha"/><feOffset/><feGaussianBlur stdDeviation=".5"/><feColorMatrix values="0 0 0 0 0 0 0 0 0 0 0 0 0 0 0 0 0 0 0.04 0"/><feBlend in2="BackgroundImageFix" result="effect1_dropShadow_1404_495"/><feColorMatrix in="SourceAlpha" values="0 0 0 0 0 0 0 0 0 0 0 0 0 0 0 0 0 0 127 0" result="hardAlpha"/><feOffset/><feGaussianBlur stdDeviation="1"/><feColorMatrix values="0 0 0 0 0.25098 0 0 0 0 0.32549 0 0 0 0 0.980392 0 0 0 0.12 0"/><feBlend in2="effect1_dropShadow_1404_495" result="effect2_dropShadow_1404_495"/><feColorMatrix in="SourceAlpha" values="0 0 0 0 0 0 0 0 0 0 0 0 0 0 0 0 0 0 127 0" result="hardAlpha"/><feOffset dy="4"/><feGaussianBlur stdDeviation="4"/><feColorMatrix values="0 0 0 0 0.25098 0 0 0 0 0.32549 0 0 0 0 0.980392 0 0 0 0.18 0"/><feBlend in2="effect2_dropShadow_1404_495" result="effect3_dropShadow_1404_495"/><feBlend in="SourceGraphic" in2="effect3_dropShadow_1404_495" result="shape"/></filter><filter id="filter5_ddd_1404_495" x="10.375" y="19.5" width="18.625" height="21.875" filterUnits="userSpaceOnUse" color-interpolation-filters="sRGB"><feFlood flood-opacity="0" result="BackgroundImageFix"/><feColorMatrix in="SourceAlpha" values="0 0 0 0 0 0 0 0 0 0 0 0 0 0 0 0 0 0 127 0" result="hardAlpha"/><feOffset/><feGaussianBlur stdDeviation=".5"/><feColorMatrix values="0 0 0 0 0 0 0 0 0 0 0 0 0 0 0 0 0 0 0.04 0"/><feBlend in2="BackgroundImageFix" result="effect1_dropShadow_1404_495"/><feColorMatrix in="SourceAlpha" values="0 0 0 0 0 0 0 0 0 0 0 0 0 0 0 0 0 0 127 0" result="hardAlpha"/><feOffset/><feGaussianBlur stdDeviation="1"/><feColorMatrix values="0 0 0 0 0.25098 0 0 0 0 0.32549 0 0 0 0 0.980392 0 0 0 0.12 0"/><feBlend in2="effect1_dropShadow_1404_495" result="effect2_dropShadow_1404_495"/><feColorMatrix in="SourceAlpha" values="0 0 0 0 0 0 0 0 0 0 0 0 0 0 0 0 0 0 127 0" result="hardAlpha"/><feOffset dy="4"/><feGaussianBlur stdDeviation="4"/><feColorMatrix values="0 0 0 0 0.25098 0 0 0 0 0.32549 0 0 0 0 0.980392 0 0 0 0.18 0"/><feBlend in2="effect2_dropShadow_1404_495" result="effect3_dropShadow_1404_495"/><feBlend in="SourceGraphic" in2="effect3_dropShadow_1404_495" result="shape"/></filter><clipPath id="clip0_1404_495"><path fill="#fff" d="M0 0h84v94H0z"/></clipPath></defs></svg>