<svg width="1876" height="464" fill="none" xmlns="http://www.w3.org/2000/svg"><path opacity=".02" d="M2.59 463.701c44.444-18.824 82.105-55.167 117.794-92.271 36.72-38.201 73.9-74.24 113.961-106.421 75.062-60.312 166.643-108.291 264.235-88.264 49.013 10.072 100.964 43.851 132.113 106.585 15.194 30.619 26.202 75.896 6.997 99.266-8.004 9.704-20.814 14.367-32.761 9.658-18.569-7.389-25.504-31.021-25.866-53.661-1.041-61.601 25.272-120.805 62.592-144.927 43.367-28.086 91.838 3.051 133.65 46.813 39.648 41.529 77.425 91.822 125.398 104.459 48.152 12.705 92.269-11.832 129.457-40.197 19.54-14.905 38.31-31.361 55.95-49.798 17.65-18.502 34.5-38.37 52.97-55.506 38.18-35.429 81.63-60.84 120.86-94.323 13.44-11.453 28.9-25.384 37.5-43.977 6.43-13.913 7.98-34.836-6.19-46.334-16.73-13.566-40.4-14.665-57.26-13.722-21.47 1.124-43.29 8.61-59.01 25.948-25.14 27.717-36.38 82.644-20.43 131.52 16.91 51.843 57.71 82.398 94.42 91.665 49.12 12.445 95.97-11.184 139.93-25.247 49.52-15.906 99.15-31.55 149.11-45.99 97.69-28.169 194.8-60.167 295.03-78.41 24.55-4.468 49.57-3.611 75.43 3.112 1.55.404 1.3-2.928-.25-3.332-51.65-13.467-99.34.893-147.03 12.558-49.38 12.061-98.24 26.265-147.04 40.514-49.69 14.544-99.55 28.606-149.03 43.916a7391.925 7391.925 0 00-75.32 23.815c-24.19 7.77-48.22 17.316-72.94 22.944-44.62 10.08-96.83 8.894-137.66-43.923-42.4-54.797-35.9-140.57 2.37-175.258 19.16-17.382 45.55-22.93 70.45-19.814 11.05 1.375 23.66 3.447 34.46 10.044 16.82 10.318 15.13 32.042 7.52 46.505-11.38 21.684-30.63 36.803-47.33 50.011-20.66 16.316-41.45 32.259-62.55 47.641-20.93 15.277-41.37 31.359-60.22 50.65-17.81 18.249-34.57 38.27-52.86 55.769-37.28 35.656-79.649 70.33-128.114 78.042-24.158 3.836-50.032-.833-74.541-16.299-26.396-16.66-49.474-42.823-72.534-68.17-35.002-38.437-72.638-78.455-115.489-79.923-40.666-1.409-71.809 33.773-89.077 78.013-11.623 29.777-31.275 109.346 6.813 134.71 14.708 9.771 31.309 5.615 41.395-6.814 11.427-14.02 12.75-38.166 8.226-60.745-11.651-58.172-55.794-107.638-94.757-130.424-41.879-24.523-88.515-29.021-129.299-23.074-45.428 6.606-88.111 23.902-128.139 47.813-41.372 24.739-80.281 55.674-117.29 89.499-38.266 34.982-72.272 77.319-111.753 110.166-20.402 16.952-41.513 32.16-64.913 42.121-1.237.332-.395 3.622 1.023 3.067z" fill="#11345C"/></svg>